<?xml version="1.0" encoding="UTF-8" standalone="no"?>
<!DOCTYPE svg PUBLIC "-//W3C//DTD SVG 1.1//EN"
 "http://www.w3.org/Graphics/SVG/1.1/DTD/svg11.dtd">
<!-- Generated by graphviz version 7.1.0 (0)
 -->
<!-- Title: G Pages: 1 -->
<svg width="1356pt" height="402pt"
 viewBox="0.00 0.00 1355.67 402.00" xmlns="http://www.w3.org/2000/svg" xmlns:xlink="http://www.w3.org/1999/xlink">
<g id="graph0" class="graph" transform="scale(1 1) rotate(0) translate(4 398)">
<title>G</title>
<polygon fill="white" stroke="none" points="-4,4 -4,-398 1351.67,-398 1351.67,4 -4,4"/>
<!-- s1 -->
<g id="node1" class="node">
<title>s1</title>
<ellipse fill="#6c9ac3" stroke="#6c9ac3" cx="22.75" cy="-322" rx="23" ry="23"/>
<text text-anchor="middle" x="22.75" y="-318.3" font-family="Times,serif" font-size="14.00">S1</text>
</g>
<!-- t1 -->
<g id="node9" class="node">
<title>t1</title>
<polygon fill="#e28f41" stroke="#e28f41" points="149.5,-270 91.5,-270 91.5,-212 149.5,-212 149.5,-270"/>
<text text-anchor="middle" x="120.5" y="-237.3" font-family="Times,serif" font-size="14.00">exp_1</text>
</g>
<!-- s1&#45;&gt;t1 -->
<g id="edge26" class="edge">
<title>s1&#45;&gt;t1</title>
<path fill="none" stroke="black" d="M36.76,-303.35C43.95,-293.87 53.45,-282.56 63.5,-274 68.96,-269.34 75.17,-264.96 81.42,-261"/>
<polygon fill="black" stroke="black" points="83.09,-264.08 89.87,-255.94 79.49,-258.08 83.09,-264.08"/>
<text text-anchor="middle" x="68.5" y="-277.8" font-family="Times,serif" font-size="14.00">1</text>
</g>
<!-- t2 -->
<g id="node10" class="node">
<title>t2</title>
<polygon fill="#e28f41" stroke="#e28f41" points="567.29,-260.5 496.29,-260.5 496.29,-189.5 567.29,-189.5 567.29,-260.5"/>
<text text-anchor="middle" x="531.79" y="-221.3" font-family="Times,serif" font-size="14.00">exp_i21</text>
</g>
<!-- s1&#45;&gt;t2 -->
<g id="edge15" class="edge">
<title>s1&#45;&gt;t2</title>
<path fill="none" stroke="black" d="M45.18,-315.25C64.43,-309.79 93.57,-303 119.5,-303 119.5,-303 119.5,-303 419.79,-303 447.49,-303 473.16,-286.54 492.82,-268.74"/>
<polygon fill="black" stroke="black" points="495.23,-271.28 500.05,-261.85 490.4,-266.22 495.23,-271.28"/>
<text text-anchor="middle" x="258.79" y="-306.8" font-family="Times,serif" font-size="14.00">1</text>
</g>
<!-- t3 -->
<g id="node11" class="node">
<title>t3</title>
<polygon fill="#e28f41" stroke="#e28f41" points="1040.38,-262 974.38,-262 974.38,-196 1040.38,-196 1040.38,-262"/>
<text text-anchor="middle" x="1007.38" y="-225.3" font-family="Times,serif" font-size="14.00">exp_a1</text>
</g>
<!-- s1&#45;&gt;t3 -->
<g id="edge18" class="edge">
<title>s1&#45;&gt;t3</title>
<path fill="none" stroke="black" d="M39.34,-338.49C57.03,-355.32 87.58,-379 119.5,-379 119.5,-379 119.5,-379 906.63,-379 957.84,-379 984.35,-317.63 996.81,-273.4"/>
<polygon fill="black" stroke="black" points="1000.18,-274.32 999.36,-263.75 993.42,-272.52 1000.18,-274.32"/>
<text text-anchor="middle" x="467.79" y="-382.8" font-family="Times,serif" font-size="14.00">1</text>
</g>
<!-- t4 -->
<g id="node12" class="node">
<title>t4</title>
<polygon fill="#e28f41" stroke="#e28f41" points="830.38,-344 764.38,-344 764.38,-278 830.38,-278 830.38,-344"/>
<text text-anchor="middle" x="797.38" y="-307.3" font-family="Times,serif" font-size="14.00">exp_e1</text>
</g>
<!-- s1&#45;&gt;t4 -->
<g id="edge24" class="edge">
<title>s1&#45;&gt;t4</title>
<path fill="none" stroke="black" d="M45.18,-328.75C64.43,-334.21 93.57,-341 119.5,-341 119.5,-341 119.5,-341 688.84,-341 710.65,-341 734.07,-335.2 753.47,-328.7"/>
<polygon fill="black" stroke="black" points="754.4,-332.09 762.66,-325.45 752.06,-325.49 754.4,-332.09"/>
<text text-anchor="middle" x="369.79" y="-344.8" font-family="Times,serif" font-size="14.00">1</text>
</g>
<!-- s2 -->
<g id="node2" class="node">
<title>s2</title>
<ellipse fill="#6c9ac3" stroke="#6c9ac3" cx="215.64" cy="-189" rx="20.3" ry="20.3"/>
<text text-anchor="middle" x="215.64" y="-185.3" font-family="Times,serif" font-size="14.00">I1</text>
</g>
<!-- s2&#45;&gt;t1 -->
<g id="edge27" class="edge">
<title>s2&#45;&gt;t1</title>
<path fill="none" stroke="black" d="M195.02,-187.6C186.22,-187.73 175.95,-188.96 167.5,-193 161.62,-195.8 156.11,-199.7 151.08,-204.07"/>
<polygon fill="black" stroke="black" points="148.95,-201.26 144.18,-210.72 153.8,-206.31 148.95,-201.26"/>
<text text-anchor="middle" x="172.5" y="-196.8" font-family="Times,serif" font-size="14.00">1</text>
</g>
<!-- t8 -->
<g id="node16" class="node">
<title>t8</title>
<polygon fill="#e28f41" stroke="#e28f41" points="346.79,-219.5 281.79,-219.5 281.79,-154.5 346.79,-154.5 346.79,-219.5"/>
<text text-anchor="middle" x="314.29" y="-183.3" font-family="Times,serif" font-size="14.00">prog_1</text>
</g>
<!-- s2&#45;&gt;t8 -->
<g id="edge4" class="edge">
<title>s2&#45;&gt;t8</title>
<path fill="none" stroke="black" d="M236.2,-188.6C246.07,-188.39 258.45,-188.13 270.38,-187.89"/>
<polygon fill="black" stroke="black" points="270.15,-191.39 280.07,-187.69 270,-184.4 270.15,-191.39"/>
<text text-anchor="middle" x="258.79" y="-192.8" font-family="Times,serif" font-size="14.00">1</text>
</g>
<!-- s3 -->
<g id="node3" class="node">
<title>s3</title>
<ellipse fill="#6c9ac3" stroke="#6c9ac3" cx="687.84" cy="-240" rx="23.3" ry="23.3"/>
<text text-anchor="middle" x="687.84" y="-236.3" font-family="Times,serif" font-size="14.00">E1</text>
</g>
<!-- s3&#45;&gt;t4 -->
<g id="edge19" class="edge">
<title>s3&#45;&gt;t4</title>
<path fill="none" stroke="black" d="M701.24,-259.48C708.51,-269.53 718.5,-281.27 729.88,-289 736.87,-293.74 744.96,-297.53 753.04,-300.54"/>
<polygon fill="black" stroke="black" points="751.91,-303.85 762.51,-303.68 754.12,-297.21 751.91,-303.85"/>
<text text-anchor="middle" x="734.88" y="-297.8" font-family="Times,serif" font-size="14.00">1</text>
</g>
<!-- t5 -->
<g id="node13" class="node">
<title>t5</title>
<polygon fill="#e28f41" stroke="#e28f41" points="836.88,-211.5 757.88,-211.5 757.88,-132.5 836.88,-132.5 836.88,-211.5"/>
<text text-anchor="middle" x="797.38" y="-168.3" font-family="Times,serif" font-size="14.00">asymp_1</text>
</g>
<!-- s3&#45;&gt;t5 -->
<g id="edge29" class="edge">
<title>s3&#45;&gt;t5</title>
<path fill="none" stroke="black" d="M707,-226.67C714.05,-221.63 722.26,-215.92 729.88,-211 735.72,-207.24 741.91,-203.4 748.09,-199.67"/>
<polygon fill="black" stroke="black" points="749.62,-202.84 756.42,-194.71 746.04,-196.82 749.62,-202.84"/>
<text text-anchor="middle" x="734.88" y="-214.8" font-family="Times,serif" font-size="14.00">1</text>
</g>
<!-- t7 -->
<g id="node15" class="node">
<title>t7</title>
<polygon fill="#e28f41" stroke="#e28f41" points="820.38,-46 774.38,-46 774.38,0 820.38,0 820.38,-46"/>
<text text-anchor="middle" x="797.38" y="-19.3" font-family="Times,serif" font-size="14.00">ill_1</text>
</g>
<!-- s3&#45;&gt;t7 -->
<g id="edge16" class="edge">
<title>s3&#45;&gt;t7</title>
<path fill="none" stroke="black" d="M699.15,-219.19C717.79,-181.58 757.25,-101.97 779.75,-56.57"/>
<polygon fill="black" stroke="black" points="782.83,-58.22 784.14,-47.71 776.56,-55.11 782.83,-58.22"/>
<text text-anchor="middle" x="734.88" y="-154.8" font-family="Times,serif" font-size="14.00">1</text>
</g>
<!-- s4 -->
<g id="node4" class="node">
<title>s4</title>
<ellipse fill="#6c9ac3" stroke="#6c9ac3" cx="418.79" cy="-187" rx="26" ry="26"/>
<text text-anchor="middle" x="418.79" y="-183.3" font-family="Times,serif" font-size="14.00">I21</text>
</g>
<!-- s4&#45;&gt;t2 -->
<g id="edge11" class="edge">
<title>s4&#45;&gt;t2</title>
<path fill="none" stroke="black" d="M443.38,-195.99C449.67,-198.33 456.47,-200.8 462.79,-203 470.03,-205.52 477.74,-208.1 485.27,-210.58"/>
<polygon fill="black" stroke="black" points="484.07,-213.86 494.66,-213.63 486.23,-207.21 484.07,-213.86"/>
<text text-anchor="middle" x="467.79" y="-210.8" font-family="Times,serif" font-size="14.00">1</text>
</g>
<!-- t9 -->
<g id="node17" class="node">
<title>t9</title>
<polygon fill="#e28f41" stroke="#e28f41" points="572.79,-171 490.79,-171 490.79,-89 572.79,-89 572.79,-171"/>
<text text-anchor="middle" x="531.79" y="-126.3" font-family="Times,serif" font-size="14.00">death2_1</text>
</g>
<!-- s4&#45;&gt;t9 -->
<g id="edge6" class="edge">
<title>s4&#45;&gt;t9</title>
<path fill="none" stroke="black" d="M442.52,-175.33C453.54,-169.67 467.24,-162.63 480.54,-155.8"/>
<polygon fill="black" stroke="black" points="481.93,-159.02 489.23,-151.34 478.74,-152.8 481.93,-159.02"/>
<text text-anchor="middle" x="467.79" y="-167.8" font-family="Times,serif" font-size="14.00">1</text>
</g>
<!-- t10 -->
<g id="node18" class="node">
<title>t10</title>
<polygon fill="#e28f41" stroke="#e28f41" points="645.79,-97.5 590.79,-97.5 590.79,-42.5 645.79,-42.5 645.79,-97.5"/>
<text text-anchor="middle" x="618.29" y="-66.3" font-family="Times,serif" font-size="14.00">rec_1</text>
</g>
<!-- s4&#45;&gt;t10 -->
<g id="edge1" class="edge">
<title>s4&#45;&gt;t10</title>
<path fill="none" stroke="black" d="M428.5,-162.66C439,-137.24 459.28,-98.54 490.79,-80 517.33,-64.38 552.61,-62.84 579.17,-64.66"/>
<polygon fill="black" stroke="black" points="578.55,-68.11 588.82,-65.52 579.17,-61.14 578.55,-68.11"/>
<text text-anchor="middle" x="467.79" y="-108.8" font-family="Times,serif" font-size="14.00">1</text>
</g>
<!-- s5 -->
<g id="node5" class="node">
<title>s5</title>
<ellipse fill="#6c9ac3" stroke="#6c9ac3" cx="905.63" cy="-172" rx="23" ry="23"/>
<text text-anchor="middle" x="905.63" y="-168.3" font-family="Times,serif" font-size="14.00">A1</text>
</g>
<!-- s5&#45;&gt;t3 -->
<g id="edge21" class="edge">
<title>s5&#45;&gt;t3</title>
<path fill="none" stroke="black" d="M928.83,-170.97C937.78,-171.37 947.95,-172.9 956.38,-177 962.22,-179.84 967.75,-183.67 972.86,-187.96"/>
<polygon fill="black" stroke="black" points="970.2,-190.27 979.91,-194.51 974.96,-185.14 970.2,-190.27"/>
<text text-anchor="middle" x="951.38" y="-180.8" font-family="Times,serif" font-size="14.00">1</text>
</g>
<!-- t6 -->
<g id="node14" class="node">
<title>t6</title>
<polygon fill="#e28f41" stroke="#e28f41" points="1038.88,-165.5 975.88,-165.5 975.88,-102.5 1038.88,-102.5 1038.88,-165.5"/>
<text text-anchor="middle" x="1007.38" y="-130.3" font-family="Times,serif" font-size="14.00">arec_1</text>
</g>
<!-- s5&#45;&gt;t6 -->
<g id="edge28" class="edge">
<title>s5&#45;&gt;t6</title>
<path fill="none" stroke="black" d="M920.55,-154.19C927.44,-146.79 936.41,-139.02 946.38,-135 952.06,-132.71 958.29,-131.42 964.52,-130.79"/>
<polygon fill="black" stroke="black" points="964.27,-134.31 974.11,-130.36 963.96,-127.31 964.27,-134.31"/>
<text text-anchor="middle" x="951.38" y="-138.8" font-family="Times,serif" font-size="14.00">1</text>
</g>
<!-- s6 -->
<g id="node6" class="node">
<title>s6</title>
<ellipse fill="#6c9ac3" stroke="#6c9ac3" cx="1109.78" cy="-90" rx="23.3" ry="23.3"/>
<text text-anchor="middle" x="1109.78" y="-86.3" font-family="Times,serif" font-size="14.00">R1</text>
</g>
<!-- t11 -->
<g id="node19" class="node">
<title>t11</title>
<polygon fill="#e28f41" stroke="#e28f41" points="1243.18,-122 1179.18,-122 1179.18,-58 1243.18,-58 1243.18,-122"/>
<text text-anchor="middle" x="1211.18" y="-86.3" font-family="Times,serif" font-size="14.00">rec2_1</text>
</g>
<!-- s6&#45;&gt;t11 -->
<g id="edge7" class="edge">
<title>s6&#45;&gt;t11</title>
<path fill="none" stroke="black" d="M1133.33,-90C1143.47,-90 1155.78,-90 1167.55,-90"/>
<polygon fill="black" stroke="black" points="1167.53,-93.5 1177.53,-90 1167.53,-86.5 1167.53,-93.5"/>
<text text-anchor="middle" x="1156.18" y="-93.8" font-family="Times,serif" font-size="14.00">1</text>
</g>
<!-- s7 -->
<g id="node7" class="node">
<title>s7</title>
<ellipse fill="#6c9ac3" stroke="#6c9ac3" cx="687.84" cy="-130" rx="24.1" ry="24.1"/>
<text text-anchor="middle" x="687.84" y="-126.3" font-family="Times,serif" font-size="14.00">D1</text>
</g>
<!-- s8 -->
<g id="node8" class="node">
<title>s8</title>
<ellipse fill="#6c9ac3" stroke="#6c9ac3" cx="1318.42" cy="-90" rx="29.5" ry="29.5"/>
<text text-anchor="middle" x="1318.42" y="-86.3" font-family="Times,serif" font-size="14.00">R21</text>
</g>
<!-- t1&#45;&gt;s2 -->
<g id="edge20" class="edge">
<title>t1&#45;&gt;s2</title>
<path fill="none" stroke="black" d="M149.92,-226.81C158.83,-222.23 168.64,-217.02 177.5,-212 181.14,-209.93 184.94,-207.69 188.66,-205.43"/>
<polygon fill="black" stroke="black" points="190.2,-208.6 196.88,-200.37 186.53,-202.64 190.2,-208.6"/>
<text text-anchor="middle" x="172.5" y="-221.8" font-family="Times,serif" font-size="14.00">1</text>
</g>
<!-- t1&#45;&gt;s3 -->
<g id="edge22" class="edge">
<title>t1&#45;&gt;s3</title>
<path fill="none" stroke="black" d="M149.96,-252.3C168.16,-258.52 192.43,-265 214.64,-265 214.64,-265 214.64,-265 370.79,-265 460.59,-265 483.4,-277.49 572.79,-269 605.68,-265.87 613.95,-263.81 645.79,-255 648.77,-254.17 651.84,-253.23 654.9,-252.23"/>
<polygon fill="black" stroke="black" points="656.03,-255.55 664.31,-248.94 653.72,-248.94 656.03,-255.55"/>
<text text-anchor="middle" x="369.79" y="-268.8" font-family="Times,serif" font-size="14.00">1</text>
</g>
<!-- t2&#45;&gt;s3 -->
<g id="edge10" class="edge">
<title>t2&#45;&gt;s3</title>
<path fill="none" stroke="black" d="M567.74,-228.4C593.34,-230.9 627.88,-234.26 653.17,-236.72"/>
<polygon fill="black" stroke="black" points="652.61,-240.18 662.91,-237.67 653.29,-233.22 652.61,-240.18"/>
<text text-anchor="middle" x="618.29" y="-239.8" font-family="Times,serif" font-size="14.00">1</text>
</g>
<!-- t2&#45;&gt;s4 -->
<g id="edge8" class="edge">
<title>t2&#45;&gt;s4</title>
<path fill="none" stroke="black" d="M496.1,-198.62C488.75,-194.28 480.79,-190.42 472.79,-188 467.56,-186.42 461.9,-185.52 456.3,-185.07"/>
<polygon fill="black" stroke="black" points="456.65,-181.58 446.54,-184.75 456.42,-188.57 456.65,-181.58"/>
<text text-anchor="middle" x="467.79" y="-191.8" font-family="Times,serif" font-size="14.00">1</text>
</g>
<!-- t3&#45;&gt;s3 -->
<g id="edge9" class="edge">
<title>t3&#45;&gt;s3</title>
<path fill="none" stroke="black" d="M974.03,-230.12C913.65,-232.21 784.36,-236.69 722.79,-238.82"/>
<polygon fill="black" stroke="black" points="722.8,-235.32 712.93,-239.17 723.05,-242.32 722.8,-235.32"/>
<text text-anchor="middle" x="859.88" y="-238.8" font-family="Times,serif" font-size="14.00">1</text>
</g>
<!-- t3&#45;&gt;s5 -->
<g id="edge2" class="edge">
<title>t3&#45;&gt;s5</title>
<path fill="none" stroke="black" d="M974.25,-210.64C961.91,-203.59 947.91,-195.59 935.86,-188.7"/>
<polygon fill="black" stroke="black" points="937.6,-185.66 927.18,-183.74 934.12,-191.74 937.6,-185.66"/>
<text text-anchor="middle" x="951.38" y="-202.8" font-family="Times,serif" font-size="14.00">1</text>
</g>
<!-- t4&#45;&gt;s3 -->
<g id="edge12" class="edge">
<title>t4&#45;&gt;s3</title>
<path fill="none" stroke="black" d="M763.96,-289.6C748.98,-279.71 731.37,-268.08 716.96,-258.57"/>
<polygon fill="black" stroke="black" points="719.11,-255.79 708.83,-253.2 715.25,-261.63 719.11,-255.79"/>
<text text-anchor="middle" x="734.88" y="-277.8" font-family="Times,serif" font-size="14.00">2</text>
</g>
<!-- t5&#45;&gt;s5 -->
<g id="edge23" class="edge">
<title>t5&#45;&gt;s5</title>
<path fill="none" stroke="black" d="M837.34,-172C848.36,-172 860.25,-172 870.93,-172"/>
<polygon fill="black" stroke="black" points="870.84,-175.5 880.84,-172 870.84,-168.5 870.84,-175.5"/>
<text text-anchor="middle" x="859.88" y="-175.8" font-family="Times,serif" font-size="14.00">1</text>
</g>
<!-- t6&#45;&gt;s6 -->
<g id="edge25" class="edge">
<title>t6&#45;&gt;s6</title>
<path fill="none" stroke="black" d="M1039.32,-120.44C1051.53,-115.09 1065.53,-108.95 1077.75,-103.6"/>
<polygon fill="black" stroke="black" points="1078.8,-106.96 1086.55,-99.74 1075.99,-100.55 1078.8,-106.96"/>
<text text-anchor="middle" x="1063.38" y="-115.8" font-family="Times,serif" font-size="14.00">1</text>
</g>
<!-- t7&#45;&gt;s2 -->
<g id="edge3" class="edge">
<title>t7&#45;&gt;s2</title>
<path fill="none" stroke="black" d="M774.14,-23C752.39,-23 718.34,-23 688.84,-23 313.29,-23 313.29,-23 313.29,-23 251.81,-23 228.75,-109.11 220.67,-157.29"/>
<polygon fill="black" stroke="black" points="217.21,-156.73 219.15,-167.15 224.13,-157.8 217.21,-156.73"/>
<text text-anchor="middle" x="467.79" y="-26.8" font-family="Times,serif" font-size="14.00">1</text>
</g>
<!-- t8&#45;&gt;s4 -->
<g id="edge17" class="edge">
<title>t8&#45;&gt;s4</title>
<path fill="none" stroke="black" d="M347.16,-187C357.86,-187 369.89,-187 380.94,-187"/>
<polygon fill="black" stroke="black" points="380.93,-190.5 390.93,-187 380.93,-183.5 380.93,-190.5"/>
<text text-anchor="middle" x="369.79" y="-190.8" font-family="Times,serif" font-size="14.00">1</text>
</g>
<!-- t9&#45;&gt;s7 -->
<g id="edge5" class="edge">
<title>t9&#45;&gt;s7</title>
<path fill="none" stroke="black" d="M573.26,-130C597.71,-130 628.54,-130 651.91,-130"/>
<polygon fill="black" stroke="black" points="651.87,-133.5 661.87,-130 651.87,-126.5 651.87,-133.5"/>
<text text-anchor="middle" x="618.29" y="-133.8" font-family="Times,serif" font-size="14.00">1</text>
</g>
<!-- t10&#45;&gt;s6 -->
<g id="edge13" class="edge">
<title>t10&#45;&gt;s6</title>
<path fill="none" stroke="black" d="M646.14,-71.47C669.36,-72.61 703.82,-74 733.88,-74 733.88,-74 733.88,-74 1008.38,-74 1031.14,-74 1056.45,-78.06 1075.96,-82.09"/>
<polygon fill="black" stroke="black" points="1075.01,-85.46 1085.52,-84.17 1076.5,-78.62 1075.01,-85.46"/>
<text text-anchor="middle" x="859.88" y="-77.8" font-family="Times,serif" font-size="14.00">1</text>
</g>
<!-- t11&#45;&gt;s8 -->
<g id="edge14" class="edge">
<title>t11&#45;&gt;s8</title>
<path fill="none" stroke="black" d="M1243.47,-90C1254.08,-90 1266.09,-90 1277.29,-90"/>
<polygon fill="black" stroke="black" points="1277.07,-93.5 1287.07,-90 1277.07,-86.5 1277.07,-93.5"/>
<text text-anchor="middle" x="1266.18" y="-93.8" font-family="Times,serif" font-size="14.00">1</text>
</g>
</g>
</svg>
