<?xml version="1.0" encoding="UTF-8" standalone="no"?>
<!DOCTYPE svg PUBLIC "-//W3C//DTD SVG 1.1//EN"
 "http://www.w3.org/Graphics/SVG/1.1/DTD/svg11.dtd">
<!-- Generated by graphviz version 7.1.0 (0)
 -->
<!-- Title: G Pages: 1 -->
<svg width="360pt" height="92pt"
 viewBox="0.00 0.00 360.00 92.00" xmlns="http://www.w3.org/2000/svg" xmlns:xlink="http://www.w3.org/1999/xlink">
<g id="graph0" class="graph" transform="scale(1 1) rotate(0) translate(4 88)">
<title>G</title>
<polygon fill="white" stroke="none" points="-4,4 -4,-88 356,-88 356,4 -4,4"/>
<!-- n0in1 -->
<!-- n0in2 -->
<!-- n0in1&#45;&gt;n0in2 -->
<!-- n1 -->
<!-- exposure -->
<g id="n1" class="node">
<title>n1</title>
<polygon fill="none" stroke="black" points="45.5,-29 45.5,-77 110.5,-77 110.5,-29 45.5,-29"/>
<text text-anchor="start" x="50.5" y="-49.3" font-family="Serif" font-size="14.00">exposure</text>
</g>
<!-- n0in1&#45;&gt;n1 -->
<!-- S -->
<g id="e1" class="edge">
<title>n0in1:e&#45;&gt;n1:w</title>
<path fill="none" stroke="black" d="M1,-72C18.48,-72 23.96,-66.54 38.62,-65.27"/>
<polygon fill="black" stroke="black" points="38.57,-67.02 43.49,-65.06 38.42,-63.52 38.57,-67.02"/>
<text text-anchor="middle" x="23" y="-72.8" font-family="Serif" font-size="14.00">S</text>
</g>
<!-- n0in2&#45;&gt;n1 -->
<!-- I -->
<g id="e2" class="edge">
<title>n0in2:e&#45;&gt;n1:w</title>
<path fill="none" stroke="black" d="M1,-12C22.04,-12 21.89,-35.41 38.62,-40.16"/>
<polygon fill="black" stroke="black" points="38.31,-41.89 43.5,-40.8 38.77,-38.42 38.31,-41.89"/>
<text text-anchor="middle" x="23" y="-34.8" font-family="Serif" font-size="14.00">I</text>
</g>
<!-- n3 -->
<!-- recovery -->
<g id="n3" class="node">
<title>n3</title>
<polygon fill="none" stroke="black" points="243,-5 243,-30 305,-30 305,-5 243,-5"/>
<text text-anchor="start" x="248" y="-13.8" font-family="Serif" font-size="14.00">recovery</text>
</g>
<!-- n0in2&#45;&gt;n3 -->
<!-- I -->
<g id="e3" class="edge">
<title>n0in2:e&#45;&gt;n3:w</title>
<path fill="none" stroke="black" d="M1,-12C106.48,-12 134.34,-16.81 236.79,-16.99"/>
<polygon fill="black" stroke="black" points="236.48,-18.74 241.49,-17 236.49,-15.24 236.48,-18.74"/>
<text text-anchor="middle" x="132.5" y="-18.8" font-family="Serif" font-size="14.00">I</text>
</g>
<!-- n0out1 -->
<!-- n2 -->
<!-- illness -->
<g id="n2" class="node">
<title>n2</title>
<polygon fill="none" stroke="black" points="155.5,-35 155.5,-60 202.5,-60 202.5,-35 155.5,-35"/>
<text text-anchor="start" x="160.5" y="-43.8" font-family="Serif" font-size="14.00">illness</text>
</g>
<!-- n1&#45;&gt;n2 -->
<!-- E -->
<g id="e4" class="edge">
<title>n1:e&#45;&gt;n2:w</title>
<path fill="none" stroke="black" d="M110,-53C127.81,-53 133.52,-48.32 148.5,-47.23"/>
<polygon fill="black" stroke="black" points="148.55,-48.98 153.49,-47.05 148.43,-45.48 148.55,-48.98"/>
<text text-anchor="middle" x="132.5" y="-53.8" font-family="Serif" font-size="14.00">E</text>
</g>
<!-- n2&#45;&gt;n3 -->
<!-- I -->
<g id="e5" class="edge">
<title>n2:e&#45;&gt;n3:w</title>
<path fill="none" stroke="black" d="M202,-47C222.29,-47 220.99,-22.78 236.89,-17.87"/>
<polygon fill="black" stroke="black" points="236.8,-19.65 241.5,-17.21 236.31,-16.18 236.8,-19.65"/>
<text text-anchor="middle" x="222.5" y="-38.8" font-family="Serif" font-size="14.00">I</text>
</g>
<!-- n3&#45;&gt;n0out1 -->
<!-- R -->
<g id="e6" class="edge">
<title>n3:e&#45;&gt;n0out1:w</title>
<path fill="none" stroke="black" d="M305,-17C323.21,-17 329.25,-17 344.8,-17"/>
<polygon fill="black" stroke="black" points="344.49,-18.75 349.49,-17 344.49,-15.25 344.49,-18.75"/>
<text text-anchor="middle" x="328" y="-20.8" font-family="Serif" font-size="14.00">R</text>
</g>
</g>
</svg>
