<?xml version="1.0" encoding="UTF-8" standalone="no"?>
<!DOCTYPE svg PUBLIC "-//W3C//DTD SVG 1.1//EN"
 "http://www.w3.org/Graphics/SVG/1.1/DTD/svg11.dtd">
<!-- Generated by graphviz version 7.1.0 (0)
 -->
<!-- Title: G Pages: 1 -->
<svg width="149pt" height="234pt"
 viewBox="0.00 0.00 149.27 233.57" xmlns="http://www.w3.org/2000/svg" xmlns:xlink="http://www.w3.org/1999/xlink">
<g id="graph0" class="graph" transform="scale(1 1) rotate(0) translate(4 229.57)">
<title>G</title>
<polygon fill="white" stroke="none" points="-4,4 -4,-229.57 145.27,-229.57 145.27,4 -4,4"/>
<!-- n1 -->
<g id="box1" class="node">
<title>n1</title>
<ellipse fill="none" stroke="black" cx="69.42" cy="-113.22" rx="43.62" ry="18"/>
<text text-anchor="middle" x="69.42" y="-109.52" font-family="Serif" font-size="14.00">crossexp12</text>
</g>
<!-- n6 -->
<!-- junction -->
<g id="junction1" class="node">
<title>n6</title>
<ellipse fill="black" stroke="black" cx="69.13" cy="-171.61" rx="2.5" ry="2.5"/>
<text text-anchor="middle" x="51.13" y="-177.91" font-family="Serif" font-size="14.00">pop1</text>
</g>
<!-- n1&#45;&#45;n6 -->
<g id="edge1" class="edge">
<title>n1&#45;&#45;n6</title>
<path fill="none" stroke="black" d="M69.33,-131.7C69.26,-145.06 69.18,-161.91 69.14,-168.64"/>
</g>
<!-- n7 -->
<!-- junction -->
<g id="junction2" class="node">
<title>n7</title>
<ellipse fill="black" stroke="black" cx="71.37" cy="-54.86" rx="2.5" ry="2.5"/>
<text text-anchor="middle" x="53.37" y="-61.16" font-family="Serif" font-size="14.00">pop2</text>
</g>
<!-- n1&#45;&#45;n7 -->
<g id="edge4" class="edge">
<title>n1&#45;&#45;n7</title>
<path fill="none" stroke="black" d="M70.03,-94.76C70.48,-81.4 71.05,-64.56 71.27,-57.84"/>
</g>
<!-- n2 -->
<g id="box2" class="node">
<title>n2</title>
<ellipse fill="none" stroke="black" cx="115.96" cy="-207.57" rx="25.13" ry="18"/>
<text text-anchor="middle" x="115.96" y="-203.87" font-family="Serif" font-size="14.00">coex1</text>
</g>
<!-- n2&#45;&#45;n6 -->
<g id="edge2" class="edge">
<title>n2&#45;&#45;n6</title>
<path fill="none" stroke="black" d="M98.52,-194.18C88.12,-186.2 76.03,-176.91 71.24,-173.23"/>
</g>
<!-- n3 -->
<g id="box3" class="node">
<title>n3</title>
<ellipse fill="none" stroke="black" cx="25.31" cy="-18" rx="25.13" ry="18"/>
<text text-anchor="middle" x="25.31" y="-14.3" font-family="Serif" font-size="14.00">coex2</text>
</g>
<!-- n3&#45;&#45;n7 -->
<g id="edge5" class="edge">
<title>n3&#45;&#45;n7</title>
<path fill="none" stroke="black" d="M42.46,-31.73C52.69,-39.91 64.58,-49.43 69.29,-53.2"/>
</g>
<!-- n4 -->
<!-- n4&#45;&#45;n6 -->
<g id="edge3" class="edge">
<title>n4&#45;&#45;n6</title>
<path fill="none" stroke="black" d="M21.82,-206.58C24.21,-204.81 57.43,-180.26 66.73,-173.39"/>
</g>
<!-- n5 -->
<!-- n5&#45;&#45;n7 -->
<g id="edge6" class="edge">
<title>n5&#45;&#45;n7</title>
<path fill="none" stroke="black" d="M119.41,-20.82C116.98,-22.54 83.25,-46.44 73.81,-53.13"/>
</g>
</g>
</svg>
