<?xml version="1.0" encoding="UTF-8" standalone="no"?>
<!DOCTYPE svg PUBLIC "-//W3C//DTD SVG 1.1//EN"
 "http://www.w3.org/Graphics/SVG/1.1/DTD/svg11.dtd">
<!-- Generated by graphviz version 7.1.0 (0)
 -->
<!-- Title: G Pages: 1 -->
<svg width="375pt" height="48pt"
 viewBox="0.00 0.00 375.00 47.88" xmlns="http://www.w3.org/2000/svg" xmlns:xlink="http://www.w3.org/1999/xlink">
<g id="graph0" class="graph" transform="scale(1 1) rotate(0) translate(4 43.88)">
<title>G</title>
<polygon fill="white" stroke="none" points="-4,4 -4,-43.88 371,-43.88 371,4 -4,4"/>
<!-- s1 -->
<g id="node1" class="node">
<title>s1</title>
<ellipse fill="#6c9ac3" stroke="#6c9ac3" cx="18" cy="-20.38" rx="18" ry="18"/>
<text text-anchor="middle" x="18" y="-16.68" font-family="Times,serif" font-size="14.00">S</text>
</g>
<!-- t1 -->
<g id="node4" class="node">
<title>t1</title>
<polygon fill="#e28f41" stroke="#e28f41" points="118,-38.38 82,-38.38 82,-2.38 118,-2.38 118,-38.38"/>
<text text-anchor="middle" x="100" y="-16.68" font-family="Times,serif" font-size="14.00">inf</text>
</g>
<!-- s1&#45;&gt;t1 -->
<g id="edge1" class="edge">
<title>s1&#45;&gt;t1</title>
<path fill="none" stroke="black" d="M36.36,-20.38C46.32,-20.38 59.07,-20.38 70.46,-20.38"/>
<polygon fill="black" stroke="black" points="70.16,-23.88 80.16,-20.38 70.16,-16.88 70.16,-23.88"/>
<text text-anchor="middle" x="59" y="-24.18" font-family="Times,serif" font-size="14.00">1</text>
</g>
<!-- s2 -->
<g id="node2" class="node">
<title>s2</title>
<ellipse fill="#6c9ac3" stroke="#6c9ac3" cx="182" cy="-20.38" rx="18" ry="18"/>
<text text-anchor="middle" x="182" y="-16.68" font-family="Times,serif" font-size="14.00">I</text>
</g>
<!-- s2&#45;&gt;t1 -->
<g id="edge4" class="edge">
<title>s2&#45;&gt;t1</title>
<path fill="none" stroke="black" d="M167.19,-9.38C158.47,-3.76 146.85,1.38 136,-1.38 133.55,-2 131.09,-2.83 128.66,-3.8"/>
<polygon fill="black" stroke="black" points="127.32,-0.56 119.82,-8.05 130.35,-6.87 127.32,-0.56"/>
<text text-anchor="middle" x="141" y="-5.18" font-family="Times,serif" font-size="14.00">1</text>
</g>
<!-- t2 -->
<g id="node5" class="node">
<title>t2</title>
<polygon fill="#e28f41" stroke="#e28f41" points="285,-39.88 246,-39.88 246,-0.88 285,-0.88 285,-39.88"/>
<text text-anchor="middle" x="265.5" y="-16.68" font-family="Times,serif" font-size="14.00">rec</text>
</g>
<!-- s2&#45;&gt;t2 -->
<g id="edge5" class="edge">
<title>s2&#45;&gt;t2</title>
<path fill="none" stroke="black" d="M200.28,-20.38C210.13,-20.38 222.76,-20.38 234.2,-20.38"/>
<polygon fill="black" stroke="black" points="234.02,-23.88 244.02,-20.38 234.02,-16.88 234.02,-23.88"/>
<text text-anchor="middle" x="223" y="-24.18" font-family="Times,serif" font-size="14.00">1</text>
</g>
<!-- s3 -->
<g id="node3" class="node">
<title>s3</title>
<ellipse fill="#6c9ac3" stroke="#6c9ac3" cx="349" cy="-20.38" rx="18" ry="18"/>
<text text-anchor="middle" x="349" y="-16.68" font-family="Times,serif" font-size="14.00">R</text>
</g>
<!-- t1&#45;&gt;s2 -->
<g id="edge2" class="edge">
<title>t1&#45;&gt;s2</title>
<path fill="none" stroke="black" d="M118.36,-20.38C128.32,-20.38 141.07,-20.38 152.46,-20.38"/>
<polygon fill="black" stroke="black" points="152.16,-23.88 162.16,-20.38 152.16,-16.88 152.16,-23.88"/>
<text text-anchor="middle" x="141" y="-24.18" font-family="Times,serif" font-size="14.00">2</text>
</g>
<!-- t2&#45;&gt;s3 -->
<g id="edge3" class="edge">
<title>t2&#45;&gt;s3</title>
<path fill="none" stroke="black" d="M285.4,-20.38C295.42,-20.38 307.93,-20.38 319.13,-20.38"/>
<polygon fill="black" stroke="black" points="319.08,-23.88 329.08,-20.38 319.08,-16.88 319.08,-23.88"/>
<text text-anchor="middle" x="308" y="-24.18" font-family="Times,serif" font-size="14.00">1</text>
</g>
</g>
</svg>
