<?xml version="1.0" encoding="UTF-8" standalone="no"?>
<!DOCTYPE svg PUBLIC "-//W3C//DTD SVG 1.1//EN"
 "http://www.w3.org/Graphics/SVG/1.1/DTD/svg11.dtd">
<!-- Generated by graphviz version 7.1.0 (0)
 -->
<!-- Title: G Pages: 1 -->
<svg width="267pt" height="92pt"
 viewBox="0.00 0.00 267.00 92.00" xmlns="http://www.w3.org/2000/svg" xmlns:xlink="http://www.w3.org/1999/xlink">
<g id="graph0" class="graph" transform="scale(1 1) rotate(0) translate(4 88)">
<title>G</title>
<polygon fill="white" stroke="none" points="-4,4 -4,-88 263,-88 263,4 -4,4"/>
<!-- n0in1 -->
<!-- n0in2 -->
<!-- n0in1&#45;&gt;n0in2 -->
<!-- n1 -->
<!-- infection -->
<g id="n1" class="node">
<title>n1</title>
<polygon fill="none" stroke="black" points="45,-18 45,-66 109,-66 109,-18 45,-18"/>
<text text-anchor="start" x="50" y="-38.3" font-family="Serif" font-size="14.00">infection</text>
</g>
<!-- n0in1&#45;&gt;n1 -->
<!-- S -->
<g id="e1" class="edge">
<title>n0in1:e&#45;&gt;n1:w</title>
<path fill="none" stroke="black" d="M1,-72C19.82,-72 23.26,-57.72 38.71,-54.6"/>
<polygon fill="black" stroke="black" points="38.68,-56.36 43.49,-54.14 38.35,-52.88 38.68,-56.36"/>
<text text-anchor="middle" x="23" y="-68.8" font-family="Serif" font-size="14.00">S</text>
</g>
<!-- n0in2&#45;&gt;n1 -->
<!-- I -->
<g id="e2" class="edge">
<title>n0in2:e&#45;&gt;n1:w</title>
<path fill="none" stroke="black" d="M1,-12C19.82,-12 23.26,-26.28 38.71,-29.4"/>
<polygon fill="black" stroke="black" points="38.35,-31.12 43.49,-29.86 38.68,-27.64 38.35,-31.12"/>
<text text-anchor="middle" x="23" y="-26.8" font-family="Serif" font-size="14.00">I</text>
</g>
<!-- n0out1 -->
<!-- n2 -->
<!-- recovery -->
<g id="n2" class="node">
<title>n2</title>
<polygon fill="none" stroke="black" points="150,-30 150,-55 212,-55 212,-30 150,-30"/>
<text text-anchor="start" x="155" y="-38.8" font-family="Serif" font-size="14.00">recovery</text>
</g>
<!-- n1&#45;&gt;n2 -->
<!-- I -->
<g id="e3" class="edge">
<title>n1:e&#45;&gt;n2:w</title>
<path fill="none" stroke="black" d="M109,-42C124.94,-42 130.43,-42 143.75,-42"/>
<polygon fill="black" stroke="black" points="143.49,-43.75 148.49,-42 143.49,-40.25 143.49,-43.75"/>
<text text-anchor="middle" x="129.5" y="-45.8" font-family="Serif" font-size="14.00">I</text>
</g>
<!-- n2&#45;&gt;n0out1 -->
<!-- R -->
<g id="e4" class="edge">
<title>n2:e&#45;&gt;n0out1:w</title>
<path fill="none" stroke="black" d="M212,-42C230.21,-42 236.25,-42 251.8,-42"/>
<polygon fill="black" stroke="black" points="251.49,-43.75 256.49,-42 251.49,-40.25 251.49,-43.75"/>
<text text-anchor="middle" x="235" y="-45.8" font-family="Serif" font-size="14.00">R</text>
</g>
</g>
</svg>
