<?xml version="1.0" encoding="UTF-8" standalone="no"?>
<!DOCTYPE svg PUBLIC "-//W3C//DTD SVG 1.1//EN"
 "http://www.w3.org/Graphics/SVG/1.1/DTD/svg11.dtd">
<!-- Generated by graphviz version 7.1.0 (0)
 -->
<!-- Title: G Pages: 1 -->
<svg width="144pt" height="127pt"
 viewBox="0.00 0.00 143.64 127.21" xmlns="http://www.w3.org/2000/svg" xmlns:xlink="http://www.w3.org/1999/xlink">
<g id="graph0" class="graph" transform="scale(1 1) rotate(0) translate(4 123.21)">
<title>G</title>
<polygon fill="white" stroke="none" points="-4,4 -4,-123.21 139.64,-123.21 139.64,4 -4,4"/>
<!-- n1 -->
<g id="node1" class="node">
<title>n1</title>
<ellipse fill="none" stroke="black" cx="10.61" cy="-30.61" rx="10.71" ry="10.71"/>
<text text-anchor="middle" x="10.61" y="-26.91" font-family="Times,serif" font-size="14.00">1</text>
</g>
<!-- n2 -->
<g id="node2" class="node">
<title>n2</title>
<ellipse fill="none" stroke="black" cx="67.82" cy="-30.61" rx="10.71" ry="10.71"/>
<text text-anchor="middle" x="67.82" y="-26.91" font-family="Times,serif" font-size="14.00">2</text>
</g>
<!-- n1&#45;&gt;n2 -->
<g id="edge1" class="edge">
<title>n1&#45;&gt;n2</title>
<path fill="none" stroke="black" d="M20.48,-25.49C28.9,-23.71 41.72,-23.38 51.75,-24.52"/>
<polygon fill="black" stroke="black" points="51.45,-26.24 56.66,-25.3 51.99,-22.78 51.45,-26.24"/>
</g>
<!-- n1&#45;&gt;n2 -->
<g id="edge2" class="edge">
<title>n1&#45;&gt;n2</title>
<path fill="none" stroke="black" d="M20.48,-35.72C28.9,-37.5 41.72,-37.83 51.75,-36.7"/>
<polygon fill="black" stroke="black" points="51.99,-38.43 56.66,-35.92 51.45,-34.97 51.99,-38.43"/>
</g>
<!-- n3 -->
<g id="node3" class="node">
<title>n3</title>
<ellipse fill="none" stroke="black" cx="125.03" cy="-49.61" rx="10.71" ry="10.71"/>
<text text-anchor="middle" x="125.03" y="-45.91" font-family="Times,serif" font-size="14.00">3</text>
</g>
<!-- n2&#45;&gt;n3 -->
<g id="edge3" class="edge">
<title>n2&#45;&gt;n3</title>
<path fill="none" stroke="black" d="M78.44,-33.92C86.75,-36.78 98.92,-40.96 108.59,-44.29"/>
<polygon fill="black" stroke="black" points="107.8,-45.87 113.09,-45.84 108.94,-42.56 107.8,-45.87"/>
</g>
<!-- n4 -->
<g id="node4" class="node">
<title>n4</title>
<ellipse fill="none" stroke="black" cx="125.03" cy="-10.61" rx="10.71" ry="10.71"/>
<text text-anchor="middle" x="125.03" y="-6.91" font-family="Times,serif" font-size="14.00">4</text>
</g>
<!-- n2&#45;&gt;n4 -->
<g id="edge4" class="edge">
<title>n2&#45;&gt;n4</title>
<path fill="none" stroke="black" d="M78.44,-27.12C86.75,-24.11 98.92,-19.7 108.59,-16.2"/>
<polygon fill="black" stroke="black" points="109,-17.91 113.1,-14.57 107.81,-14.62 109,-17.91"/>
</g>
<!-- n5 -->
<g id="node5" class="node">
<title>n5</title>
<ellipse fill="none" stroke="black" cx="10.61" cy="-108.61" rx="10.71" ry="10.71"/>
<text text-anchor="middle" x="10.61" y="-104.91" font-family="Times,serif" font-size="14.00">5</text>
</g>
<!-- n7 -->
<g id="node7" class="node">
<title>n7</title>
<ellipse fill="none" stroke="black" cx="67.82" cy="-98.61" rx="10.71" ry="10.71"/>
<text text-anchor="middle" x="67.82" y="-94.91" font-family="Times,serif" font-size="14.00">7</text>
</g>
<!-- n5&#45;&gt;n7 -->
<g id="edge5" class="edge">
<title>n5&#45;&gt;n7</title>
<path fill="none" stroke="black" d="M21.48,-106.82C29.64,-105.34 41.4,-103.21 50.89,-101.49"/>
<polygon fill="black" stroke="black" points="50.94,-103.26 55.54,-100.65 50.31,-99.82 50.94,-103.26"/>
</g>
<!-- n6 -->
<g id="node6" class="node">
<title>n6</title>
<ellipse fill="none" stroke="black" cx="10.61" cy="-69.61" rx="10.71" ry="10.71"/>
<text text-anchor="middle" x="10.61" y="-65.91" font-family="Times,serif" font-size="14.00">6</text>
</g>
<!-- n6&#45;&gt;n7 -->
<g id="edge6" class="edge">
<title>n6&#45;&gt;n7</title>
<path fill="none" stroke="black" d="M20.72,-74.4C29.33,-78.91 42.36,-85.76 52.38,-91.02"/>
<polygon fill="black" stroke="black" points="51.29,-92.43 56.53,-93.2 52.92,-89.33 51.29,-92.43"/>
</g>
<!-- n8 -->
<g id="node8" class="node">
<title>n8</title>
<ellipse fill="none" stroke="black" cx="125.03" cy="-98.61" rx="10.71" ry="10.71"/>
<text text-anchor="middle" x="125.03" y="-94.91" font-family="Times,serif" font-size="14.00">8</text>
</g>
<!-- n7&#45;&gt;n8 -->
<g id="edge7" class="edge">
<title>n7&#45;&gt;n8</title>
<path fill="none" stroke="black" d="M78.95,-98.61C86.96,-98.61 98.32,-98.61 107.63,-98.61"/>
<polygon fill="black" stroke="black" points="107.46,-100.36 112.46,-98.61 107.46,-96.86 107.46,-100.36"/>
</g>
</g>
</svg>
