<?xml version="1.0" encoding="UTF-8" standalone="no"?>
<!DOCTYPE svg PUBLIC "-//W3C//DTD SVG 1.1//EN"
 "http://www.w3.org/Graphics/SVG/1.1/DTD/svg11.dtd">
<!-- Generated by graphviz version 7.1.0 (0)
 -->
<!-- Title: G Pages: 1 -->
<svg width="375pt" height="108pt"
 viewBox="0.00 0.00 375.00 107.52" xmlns="http://www.w3.org/2000/svg" xmlns:xlink="http://www.w3.org/1999/xlink">
<g id="graph0" class="graph" transform="scale(1 1) rotate(0) translate(4 103.52)">
<title>G</title>
<polygon fill="white" stroke="none" points="-4,4 -4,-103.52 371,-103.52 371,4 -4,4"/>
<!-- s1 -->
<g id="node1" class="node">
<title>s1</title>
<ellipse fill="#6c9ac3" stroke="#6c9ac3" cx="18" cy="-49.52" rx="18" ry="18"/>
<text text-anchor="middle" x="18" y="-45.82" font-family="Times,serif" font-size="14.00">S</text>
</g>
<!-- t1 -->
<g id="node5" class="node">
<title>t1</title>
<polygon fill="#e28f41" stroke="#e28f41" points="118,-94.52 82,-94.52 82,-58.52 118,-58.52 118,-94.52"/>
<text text-anchor="middle" x="100" y="-72.82" font-family="Times,serif" font-size="14.00">inf</text>
</g>
<!-- s1&#45;&gt;t1 -->
<g id="edge4" class="edge">
<title>s1&#45;&gt;t1</title>
<path fill="none" stroke="black" d="M35.58,-55.11C45.77,-58.55 59.1,-63.05 70.91,-67.04"/>
<polygon fill="black" stroke="black" points="69.59,-70.28 80.18,-70.17 71.83,-63.65 69.59,-70.28"/>
<text text-anchor="middle" x="59" y="-68.32" font-family="Times,serif" font-size="14.00">1</text>
</g>
<!-- t3 -->
<g id="node7" class="node">
<title>t3</title>
<polygon fill="#e28f41" stroke="#e28f41" points="118,-40.52 82,-40.52 82,-4.52 118,-4.52 118,-40.52"/>
<text text-anchor="middle" x="100" y="-18.82" font-family="Times,serif" font-size="14.00">inf</text>
</g>
<!-- s1&#45;&gt;t3 -->
<g id="edge3" class="edge">
<title>s1&#45;&gt;t3</title>
<path fill="none" stroke="black" d="M34.9,-42.77C40.85,-40.35 47.69,-37.69 54,-35.52 59.39,-33.67 65.2,-31.85 70.79,-30.2"/>
<polygon fill="black" stroke="black" points="71.67,-33.59 80.32,-27.48 69.75,-26.86 71.67,-33.59"/>
<text text-anchor="middle" x="59" y="-39.32" font-family="Times,serif" font-size="14.00">1</text>
</g>
<!-- s2 -->
<g id="node2" class="node">
<title>s2</title>
<ellipse fill="#6c9ac3" stroke="#6c9ac3" cx="182" cy="-77.52" rx="18" ry="18"/>
<text text-anchor="middle" x="182" y="-73.82" font-family="Times,serif" font-size="14.00">I</text>
</g>
<!-- s2&#45;&gt;t1 -->
<g id="edge9" class="edge">
<title>s2&#45;&gt;t1</title>
<path fill="none" stroke="black" d="M164.91,-70.76C159.06,-68.63 152.34,-66.57 146,-65.52 140.54,-64.61 134.75,-64.98 129.22,-66.02"/>
<polygon fill="black" stroke="black" points="128.64,-62.55 119.86,-68.48 130.42,-69.32 128.64,-62.55"/>
<text text-anchor="middle" x="141" y="-69.32" font-family="Times,serif" font-size="14.00">1</text>
</g>
<!-- t2 -->
<g id="node6" class="node">
<title>t2</title>
<polygon fill="#e28f41" stroke="#e28f41" points="285,-97.02 246,-97.02 246,-58.02 285,-58.02 285,-97.02"/>
<text text-anchor="middle" x="265.5" y="-73.82" font-family="Times,serif" font-size="14.00">rec</text>
</g>
<!-- s2&#45;&gt;t2 -->
<g id="edge10" class="edge">
<title>s2&#45;&gt;t2</title>
<path fill="none" stroke="black" d="M200.28,-77.52C210.13,-77.52 222.76,-77.52 234.2,-77.52"/>
<polygon fill="black" stroke="black" points="234.02,-81.02 244.02,-77.52 234.02,-74.02 234.02,-81.02"/>
<text text-anchor="middle" x="223" y="-81.32" font-family="Times,serif" font-size="14.00">1</text>
</g>
<!-- s3 -->
<g id="node3" class="node">
<title>s3</title>
<ellipse fill="#6c9ac3" stroke="#6c9ac3" cx="349" cy="-48.52" rx="18" ry="18"/>
<text text-anchor="middle" x="349" y="-44.82" font-family="Times,serif" font-size="14.00">R</text>
</g>
<!-- s4 -->
<g id="node4" class="node">
<title>s4</title>
<ellipse fill="#6c9ac3" stroke="#6c9ac3" cx="182" cy="-20.52" rx="18" ry="18"/>
<text text-anchor="middle" x="182" y="-16.82" font-family="Times,serif" font-size="14.00">I</text>
</g>
<!-- s4&#45;&gt;t3 -->
<g id="edge8" class="edge">
<title>s4&#45;&gt;t3</title>
<path fill="none" stroke="black" d="M167.54,-9.62C158.77,-3.83 146.95,1.52 136,-1.52 133.41,-2.23 130.81,-3.2 128.28,-4.33"/>
<polygon fill="black" stroke="black" points="126.83,-1.13 119.65,-8.92 130.12,-7.31 126.83,-1.13"/>
<text text-anchor="middle" x="141" y="-5.32" font-family="Times,serif" font-size="14.00">1</text>
</g>
<!-- t4 -->
<g id="node8" class="node">
<title>t4</title>
<polygon fill="#e28f41" stroke="#e28f41" points="285,-40.02 246,-40.02 246,-1.02 285,-1.02 285,-40.02"/>
<text text-anchor="middle" x="265.5" y="-16.82" font-family="Times,serif" font-size="14.00">rec</text>
</g>
<!-- s4&#45;&gt;t4 -->
<g id="edge2" class="edge">
<title>s4&#45;&gt;t4</title>
<path fill="none" stroke="black" d="M200.28,-20.52C210.13,-20.52 222.76,-20.52 234.2,-20.52"/>
<polygon fill="black" stroke="black" points="234.02,-24.02 244.02,-20.52 234.02,-17.02 234.02,-24.02"/>
<text text-anchor="middle" x="223" y="-24.32" font-family="Times,serif" font-size="14.00">1</text>
</g>
<!-- t1&#45;&gt;s2 -->
<g id="edge5" class="edge">
<title>t1&#45;&gt;s2</title>
<path fill="none" stroke="black" d="M118.31,-81.28C123.91,-82.61 130.18,-83.86 136,-84.52 141.6,-85.15 147.57,-84.89 153.26,-84.18"/>
<polygon fill="black" stroke="black" points="153.63,-87.67 162.88,-82.5 152.43,-80.77 153.63,-87.67"/>
<text text-anchor="middle" x="141" y="-88.32" font-family="Times,serif" font-size="14.00">2</text>
</g>
<!-- t2&#45;&gt;s3 -->
<g id="edge7" class="edge">
<title>t2&#45;&gt;s3</title>
<path fill="none" stroke="black" d="M285.4,-70.79C296.02,-67.01 309.45,-62.23 321.15,-58.07"/>
<polygon fill="black" stroke="black" points="322,-61.48 330.25,-54.83 319.66,-54.89 322,-61.48"/>
<text text-anchor="middle" x="308" y="-67.32" font-family="Times,serif" font-size="14.00">1</text>
</g>
<!-- t3&#45;&gt;s4 -->
<g id="edge6" class="edge">
<title>t3&#45;&gt;s4</title>
<path fill="none" stroke="black" d="M118.36,-22.08C128.32,-21.83 141.07,-21.51 152.46,-21.23"/>
<polygon fill="black" stroke="black" points="152.25,-24.74 162.16,-20.99 152.08,-17.74 152.25,-24.74"/>
<text text-anchor="middle" x="141" y="-25.32" font-family="Times,serif" font-size="14.00">2</text>
</g>
<!-- t4&#45;&gt;s3 -->
<g id="edge1" class="edge">
<title>t4&#45;&gt;s3</title>
<path fill="none" stroke="black" d="M285.12,-26.32C293.64,-29.03 303.86,-32.35 313,-35.52 315.58,-36.41 318.27,-37.37 320.94,-38.33"/>
<polygon fill="black" stroke="black" points="319.66,-41.59 330.25,-41.76 322.08,-35.02 319.66,-41.59"/>
<text text-anchor="middle" x="308" y="-39.32" font-family="Times,serif" font-size="14.00">1</text>
</g>
</g>
</svg>
