<?xml version="1.0" encoding="UTF-8" standalone="no"?>
<!DOCTYPE svg PUBLIC "-//W3C//DTD SVG 1.1//EN"
 "http://www.w3.org/Graphics/SVG/1.1/DTD/svg11.dtd">
<!-- Generated by graphviz version 7.1.0 (0)
 -->
<!-- Title: G Pages: 1 -->
<svg width="229pt" height="332pt"
 viewBox="0.00 0.00 228.65 331.69" xmlns="http://www.w3.org/2000/svg" xmlns:xlink="http://www.w3.org/1999/xlink">
<g id="graph0" class="graph" transform="scale(1 1) rotate(0) translate(4 327.69)">
<title>G</title>
<polygon fill="white" stroke="none" points="-4,4 -4,-327.69 224.65,-327.69 224.65,4 -4,4"/>
<!-- n1 -->
<g id="box1" class="node">
<title>n1</title>
<ellipse fill="none" stroke="black" cx="102.68" cy="-211.3" rx="37.17" ry="18"/>
<text text-anchor="middle" x="102.68" y="-207.6" font-family="Serif" font-size="14.00">exposure</text>
</g>
<!-- n8 -->
<!-- junction -->
<g id="junction1" class="node">
<title>n8</title>
<ellipse fill="black" stroke="black" cx="85.87" cy="-268.94" rx="2.5" ry="2.5"/>
<text text-anchor="middle" x="80.37" y="-275.24" font-family="Serif" font-size="14.00">s</text>
</g>
<!-- n1&#45;&#45;n8 -->
<g id="edge1" class="edge">
<title>n1&#45;&#45;n8</title>
<path fill="none" stroke="black" d="M97.36,-229.54C93.44,-243 88.47,-260.03 86.62,-266.39"/>
</g>
<!-- n9 -->
<!-- junction -->
<g id="junction2" class="node">
<title>n9</title>
<ellipse fill="black" stroke="black" cx="163.04" cy="-197.07" rx="2.5" ry="2.5"/>
<text text-anchor="middle" x="157.04" y="-203.37" font-family="Serif" font-size="14.00">e</text>
</g>
<!-- n1&#45;&#45;n9 -->
<g id="edge3" class="edge">
<title>n1&#45;&#45;n9</title>
<path fill="none" stroke="black" d="M136.39,-203.36C146.33,-201.01 155.75,-198.79 160.26,-197.73"/>
</g>
<!-- n10 -->
<!-- junction -->
<g id="junction3" class="node">
<title>n10</title>
<ellipse fill="black" stroke="black" cx="73.69" cy="-155.3" rx="2.5" ry="2.5"/>
<text text-anchor="middle" x="69.19" y="-161.6" font-family="Serif" font-size="14.00">i</text>
</g>
<!-- n1&#45;&#45;n10 -->
<g id="edge6" class="edge">
<title>n1&#45;&#45;n10</title>
<path fill="none" stroke="black" d="M93.51,-193.58C86.74,-180.51 78.18,-163.96 74.98,-157.78"/>
</g>
<!-- n2 -->
<g id="box2" class="node">
<title>n2</title>
<ellipse fill="none" stroke="black" cx="135.84" cy="-143.78" rx="26.48" ry="18"/>
<text text-anchor="middle" x="135.84" y="-140.08" font-family="Serif" font-size="14.00">illness</text>
</g>
<!-- n2&#45;&#45;n9 -->
<g id="edge4" class="edge">
<title>n2&#45;&#45;n9</title>
<path fill="none" stroke="black" d="M144.75,-161.23C150.95,-173.37 158.63,-188.42 161.69,-194.42"/>
</g>
<!-- n2&#45;&#45;n10 -->
<g id="edge7" class="edge">
<title>n2&#45;&#45;n10</title>
<path fill="none" stroke="black" d="M109.85,-148.6C96.81,-151.02 82.54,-153.66 76.57,-154.77"/>
</g>
<!-- n3 -->
<g id="box3" class="node">
<title>n3</title>
<ellipse fill="none" stroke="black" cx="54.71" cy="-97.68" rx="35.14" ry="18"/>
<text text-anchor="middle" x="54.71" y="-93.98" font-family="Serif" font-size="14.00">recovery</text>
</g>
<!-- n3&#45;&#45;n10 -->
<g id="edge8" class="edge">
<title>n3&#45;&#45;n10</title>
<path fill="none" stroke="black" d="M60.72,-115.91C65.15,-129.36 70.76,-146.39 72.85,-152.75"/>
</g>
<!-- n11 -->
<!-- junction -->
<g id="junction4" class="node">
<title>n11</title>
<ellipse fill="black" stroke="black" cx="31.94" cy="-45.84" rx="2.5" ry="2.5"/>
<text text-anchor="middle" x="26.44" y="-52.14" font-family="Serif" font-size="14.00">r</text>
</g>
<!-- n3&#45;&#45;n11 -->
<g id="edge10" class="edge">
<title>n3&#45;&#45;n11</title>
<path fill="none" stroke="black" d="M46.87,-79.84C41.73,-68.13 35.51,-53.97 33.03,-48.33"/>
</g>
<!-- n4 -->
<!-- n4&#45;&#45;n8 -->
<g id="edge2" class="edge">
<title>n4&#45;&#45;n8</title>
<path fill="none" stroke="black" d="M70.48,-323.03C71.26,-320.3 82.07,-282.31 85.09,-271.69"/>
</g>
<!-- n5 -->
<!-- n5&#45;&#45;n9 -->
<g id="edge5" class="edge">
<title>n5&#45;&#45;n9</title>
<path fill="none" stroke="black" d="M219.99,-207.55C217.11,-207.02 177.12,-199.67 165.94,-197.61"/>
</g>
<!-- n6 -->
<!-- n6&#45;&#45;n10 -->
<g id="edge9" class="edge">
<title>n6&#45;&#45;n10</title>
<path fill="none" stroke="black" d="M14.69,-172.37C17.7,-171.5 59.86,-159.3 71.01,-156.08"/>
</g>
<!-- n7 -->
<!-- n7&#45;&#45;n11 -->
<g id="edge11" class="edge">
<title>n7&#45;&#45;n11</title>
<path fill="none" stroke="black" d="M0.59,-0.63C2.18,-2.92 24.19,-34.66 30.35,-43.55"/>
</g>
</g>
</svg>
