<?xml version="1.0" encoding="UTF-8" standalone="no"?>
<!DOCTYPE svg PUBLIC "-//W3C//DTD SVG 1.1//EN"
 "http://www.w3.org/Graphics/SVG/1.1/DTD/svg11.dtd">
<!-- Generated by graphviz version 7.1.0 (0)
 -->
<!-- Title: G Pages: 1 -->
<svg width="214pt" height="109pt"
 viewBox="0.00 0.00 214.00 109.00" xmlns="http://www.w3.org/2000/svg" xmlns:xlink="http://www.w3.org/1999/xlink">
<g id="graph0" class="graph" transform="scale(1 1) rotate(0) translate(4 105)">
<title>G</title>
<polygon fill="white" stroke="none" points="-4,4 -4,-105 210,-105 210,4 -4,4"/>
<!-- s1 -->
<g id="node1" class="node">
<title>s1</title>
<ellipse fill="#6c9ac3" stroke="#6c9ac3" cx="18" cy="-56" rx="18" ry="18"/>
<text text-anchor="middle" x="18" y="-52.3" font-family="Times,serif" font-size="14.00">S</text>
</g>
<!-- t1 -->
<g id="node4" class="node">
<title>t1</title>
<polygon fill="#e28f41" stroke="#e28f41" points="124,-77 82,-77 82,-35 124,-35 124,-77"/>
<text text-anchor="middle" x="103" y="-52.3" font-family="Times,serif" font-size="14.00">exp</text>
</g>
<!-- s1&#45;&gt;t1 -->
<g id="edge1" class="edge">
<title>s1&#45;&gt;t1</title>
<path fill="none" stroke="black" d="M36.2,-56C45.99,-56 58.58,-56 70.12,-56"/>
<polygon fill="black" stroke="black" points="70.09,-59.5 80.09,-56 70.09,-52.5 70.09,-59.5"/>
<text text-anchor="middle" x="59" y="-59.8" font-family="Times,serif" font-size="14.00">1</text>
</g>
<!-- s2 -->
<g id="node2" class="node">
<title>s2</title>
<ellipse fill="#6c9ac3" stroke="#6c9ac3" cx="188" cy="-83" rx="18" ry="18"/>
<text text-anchor="middle" x="188" y="-79.3" font-family="Times,serif" font-size="14.00">I</text>
</g>
<!-- s2&#45;&gt;t1 -->
<g id="edge3" class="edge">
<title>s2&#45;&gt;t1</title>
<path fill="none" stroke="black" d="M175.49,-69.42C169.26,-63.13 161.01,-56.33 152,-53 146.79,-51.07 141.05,-50.35 135.41,-50.34"/>
<polygon fill="black" stroke="black" points="135.39,-46.83 125.66,-51.03 135.89,-53.81 135.39,-46.83"/>
<text text-anchor="middle" x="147" y="-56.8" font-family="Times,serif" font-size="14.00">1</text>
</g>
<!-- s3 -->
<g id="node3" class="node">
<title>s3</title>
<ellipse fill="#6c9ac3" stroke="#6c9ac3" cx="188" cy="-18" rx="18" ry="18"/>
<text text-anchor="middle" x="188" y="-14.3" font-family="Times,serif" font-size="14.00">E</text>
</g>
<!-- t1&#45;&gt;s2 -->
<g id="edge2" class="edge">
<title>t1&#45;&gt;s2</title>
<path fill="none" stroke="black" d="M124.28,-65.24C129.95,-67.63 136.15,-70.07 142,-72 147.44,-73.8 153.34,-75.45 159.02,-76.89"/>
<polygon fill="black" stroke="black" points="158.14,-80.28 168.68,-79.2 159.77,-73.47 158.14,-80.28"/>
<text text-anchor="middle" x="147" y="-77.8" font-family="Times,serif" font-size="14.00">1</text>
</g>
<!-- t1&#45;&gt;s3 -->
<g id="edge4" class="edge">
<title>t1&#45;&gt;s3</title>
<path fill="none" stroke="black" d="M124.25,-41.07C129.81,-37.42 135.97,-33.77 142,-31 147.4,-28.51 153.39,-26.39 159.19,-24.62"/>
<polygon fill="black" stroke="black" points="159.73,-28.1 168.44,-22.06 157.87,-21.35 159.73,-28.1"/>
<text text-anchor="middle" x="147" y="-34.8" font-family="Times,serif" font-size="14.00">1</text>
</g>
</g>
</svg>
