<?xml version="1.0" encoding="UTF-8" standalone="no"?>
<!DOCTYPE svg PUBLIC "-//W3C//DTD SVG 1.1//EN"
 "http://www.w3.org/Graphics/SVG/1.1/DTD/svg11.dtd">
<!-- Generated by graphviz version 7.1.0 (0)
 -->
<!-- Title: G Pages: 1 -->
<svg width="265pt" height="232pt"
 viewBox="0.00 0.00 264.95 231.88" xmlns="http://www.w3.org/2000/svg" xmlns:xlink="http://www.w3.org/1999/xlink">
<g id="graph0" class="graph" transform="scale(1 1) rotate(0) translate(4 227.88)">
<title>G</title>
<polygon fill="white" stroke="none" points="-4,4 -4,-227.88 260.95,-227.88 260.95,4 -4,4"/>
<!-- n1 -->
<g id="box1" class="node">
<title>n1</title>
<ellipse fill="none" stroke="black" cx="55.61" cy="-124.11" rx="18" ry="18"/>
<text text-anchor="middle" x="55.61" y="-120.41" font-family="Serif" font-size="14.00">sir</text>
</g>
<!-- n7 -->
<!-- junction -->
<g id="junction1" class="node">
<title>n7</title>
<ellipse fill="black" stroke="black" cx="89.03" cy="-60.57" rx="2.5" ry="2.5"/>
<text text-anchor="middle" x="83.53" y="-66.87" font-family="Serif" font-size="14.00">s</text>
</g>
<!-- n1&#45;&#45;n7 -->
<g id="edge1" class="edge">
<title>n1&#45;&#45;n7</title>
<path fill="none" stroke="black" d="M64.22,-107.75C72.42,-92.16 84.05,-70.04 87.81,-62.89"/>
</g>
<!-- n8 -->
<!-- junction -->
<g id="junction2" class="node">
<title>n8</title>
<ellipse fill="black" stroke="black" cx="26.81" cy="-174.64" rx="2.5" ry="2.5"/>
<text text-anchor="middle" x="22.31" y="-180.94" font-family="Serif" font-size="14.00">i</text>
</g>
<!-- n1&#45;&#45;n8 -->
<g id="edge4" class="edge">
<title>n1&#45;&#45;n8</title>
<path fill="none" stroke="black" d="M46.5,-140.1C39.9,-151.67 31.6,-166.24 28.28,-172.07"/>
</g>
<!-- n10 -->
<!-- junction -->
<g id="junction4" class="node">
<title>n10</title>
<ellipse fill="black" stroke="black" cx="99.35" cy="-110.01" rx="2.5" ry="2.5"/>
<text text-anchor="middle" x="93.85" y="-116.31" font-family="Serif" font-size="14.00">r</text>
</g>
<!-- n1&#45;&#45;n10 -->
<g id="edge8" class="edge">
<title>n1&#45;&#45;n10</title>
<path fill="none" stroke="black" d="M73.15,-118.46C82.09,-115.58 92.03,-112.38 96.68,-110.88"/>
</g>
<!-- n2 -->
<g id="box2" class="node">
<title>n2</title>
<ellipse fill="none" stroke="black" cx="144.93" cy="-74.76" rx="18" ry="18"/>
<text text-anchor="middle" x="144.93" y="-71.06" font-family="Serif" font-size="14.00">sir</text>
</g>
<!-- n2&#45;&#45;n7 -->
<g id="edge2" class="edge">
<title>n2&#45;&#45;n7</title>
<path fill="none" stroke="black" d="M127.24,-70.27C114.45,-67.02 98.32,-62.93 91.88,-61.29"/>
</g>
<!-- n9 -->
<!-- junction -->
<g id="junction3" class="node">
<title>n9</title>
<ellipse fill="black" stroke="black" cx="201.37" cy="-69.41" rx="2.5" ry="2.5"/>
<text text-anchor="middle" x="192.87" y="-75.71" font-family="Serif" font-size="14.00">i2</text>
</g>
<!-- n2&#45;&#45;n9 -->
<g id="edge6" class="edge">
<title>n2&#45;&#45;n9</title>
<path fill="none" stroke="black" d="M163.1,-73.03C175.99,-71.81 192.1,-70.29 198.53,-69.68"/>
</g>
<!-- n2&#45;&#45;n10 -->
<g id="edge9" class="edge">
<title>n2&#45;&#45;n10</title>
<path fill="none" stroke="black" d="M130.51,-85.91C120.08,-93.98 106.93,-104.15 101.68,-108.22"/>
</g>
<!-- n3 -->
<!-- n3&#45;&#45;n7 -->
<g id="edge3" class="edge">
<title>n3&#45;&#45;n7</title>
<path fill="none" stroke="black" d="M73.12,-0.88C74.3,-5.32 85.4,-46.95 88.33,-57.93"/>
</g>
<!-- n4 -->
<!-- n4&#45;&#45;n8 -->
<g id="edge5" class="edge">
<title>n4&#45;&#45;n8</title>
<path fill="none" stroke="black" d="M0.58,-223.24C1.9,-220.78 20.32,-186.66 25.48,-177.11"/>
</g>
<!-- n5 -->
<!-- n5&#45;&#45;n9 -->
<g id="edge7" class="edge">
<title>n5&#45;&#45;n9</title>
<path fill="none" stroke="black" d="M256.3,-72.78C253.52,-72.61 214.95,-70.24 204.16,-69.58"/>
</g>
<!-- n6 -->
<!-- n6&#45;&#45;n10 -->
<g id="edge10" class="edge">
<title>n6&#45;&#45;n10</title>
<path fill="none" stroke="black" d="M36.56,-69C41.27,-72.08 85.82,-101.17 96.88,-108.4"/>
</g>
</g>
</svg>
