<?xml version="1.0" encoding="UTF-8" standalone="no"?>
<!DOCTYPE svg PUBLIC "-//W3C//DTD SVG 1.1//EN"
 "http://www.w3.org/Graphics/SVG/1.1/DTD/svg11.dtd">
<!-- Generated by graphviz version 7.1.0 (0)
 -->
<!-- Title: G Pages: 1 -->
<svg width="276pt" height="198pt"
 viewBox="0.00 0.00 275.83 197.66" xmlns="http://www.w3.org/2000/svg" xmlns:xlink="http://www.w3.org/1999/xlink">
<g id="graph0" class="graph" transform="scale(1 1) rotate(0) translate(4 193.66)">
<title>G</title>
<polygon fill="white" stroke="none" points="-4,4 -4,-193.66 271.83,-193.66 271.83,4 -4,4"/>
<!-- n1 -->
<g id="box1" class="node">
<title>n1</title>
<ellipse fill="none" stroke="black" cx="67.27" cy="-88.16" rx="36.49" ry="18"/>
<text text-anchor="middle" x="67.27" y="-84.46" font-family="Serif" font-size="14.00">infection</text>
</g>
<!-- n6 -->
<!-- junction -->
<g id="junction1" class="node">
<title>n6</title>
<ellipse fill="black" stroke="black" cx="32.31" cy="-44.95" rx="2.5" ry="2.5"/>
<text text-anchor="middle" x="26.81" y="-51.25" font-family="Serif" font-size="14.00">s</text>
</g>
<!-- n1&#45;&#45;n6 -->
<g id="edge1" class="edge">
<title>n1&#45;&#45;n6</title>
<path fill="none" stroke="black" d="M53.45,-71.08C45.82,-61.65 37.21,-51 33.81,-46.8"/>
</g>
<!-- n7 -->
<!-- junction -->
<g id="junction2" class="node">
<title>n7</title>
<ellipse fill="black" stroke="black" cx="100.28" cy="-136.78" rx="2.5" ry="2.5"/>
<text text-anchor="middle" x="95.78" y="-143.08" font-family="Serif" font-size="14.00">i</text>
</g>
<!-- n1&#45;&#45;n7 -->
<g id="edge3" class="edge">
<title>n1&#45;&#45;n7</title>
<path fill="none" stroke="black" d="M79,-105.44C86.41,-116.36 95.23,-129.34 98.74,-134.5"/>
</g>
<!-- n2 -->
<g id="box2" class="node">
<title>n2</title>
<ellipse fill="none" stroke="black" cx="159.01" cy="-139.58" rx="35.14" ry="18"/>
<text text-anchor="middle" x="159.01" y="-135.88" font-family="Serif" font-size="14.00">recovery</text>
</g>
<!-- n2&#45;&#45;n7 -->
<g id="edge4" class="edge">
<title>n2&#45;&#45;n7</title>
<path fill="none" stroke="black" d="M123.83,-137.9C115.23,-137.49 107.32,-137.12 103.22,-136.92"/>
</g>
<!-- n8 -->
<!-- junction -->
<g id="junction3" class="node">
<title>n8</title>
<ellipse fill="black" stroke="black" cx="214.26" cy="-145.95" rx="2.5" ry="2.5"/>
<text text-anchor="middle" x="208.76" y="-152.25" font-family="Serif" font-size="14.00">r</text>
</g>
<!-- n2&#45;&#45;n8 -->
<g id="edge6" class="edge">
<title>n2&#45;&#45;n8</title>
<path fill="none" stroke="black" d="M193.69,-143.58C201.14,-144.44 207.87,-145.21 211.48,-145.63"/>
</g>
<!-- n3 -->
<!-- n3&#45;&#45;n6 -->
<g id="edge2" class="edge">
<title>n3&#45;&#45;n6</title>
<path fill="none" stroke="black" d="M0.86,-1C3.86,-5.2 24.93,-34.64 30.8,-42.84"/>
</g>
<!-- n4 -->
<!-- n4&#45;&#45;n7 -->
<g id="edge5" class="edge">
<title>n4&#45;&#45;n7</title>
<path fill="none" stroke="black" d="M70.79,-189.01C72.29,-186.35 93.37,-149.03 98.94,-139.16"/>
</g>
<!-- n5 -->
<!-- n5&#45;&#45;n8 -->
<g id="edge7" class="edge">
<title>n5&#45;&#45;n8</title>
<path fill="none" stroke="black" d="M267.18,-159.07C264.5,-158.41 227.34,-149.19 216.95,-146.62"/>
</g>
</g>
</svg>
