<?xml version="1.0" encoding="UTF-8" standalone="no"?>
<!DOCTYPE svg PUBLIC "-//W3C//DTD SVG 1.1//EN"
 "http://www.w3.org/Graphics/SVG/1.1/DTD/svg11.dtd">
<!-- Generated by graphviz version 7.1.0 (0)
 -->
<!-- Title: G Pages: 1 -->
<svg width="436pt" height="439pt"
 viewBox="0.00 0.00 435.93 438.63" xmlns="http://www.w3.org/2000/svg" xmlns:xlink="http://www.w3.org/1999/xlink">
<g id="graph0" class="graph" transform="scale(1 1) rotate(0) translate(4 434.63)">
<title>G</title>
<polygon fill="white" stroke="none" points="-4,4 -4,-434.63 431.93,-434.63 431.93,4 -4,4"/>
<!-- n1 -->
<g id="box1" class="node">
<title>n1</title>
<ellipse fill="none" stroke="black" cx="167.26" cy="-113.42" rx="37.17" ry="18"/>
<text text-anchor="middle" x="167.26" y="-109.72" font-family="Serif" font-size="14.00">exposure</text>
</g>
<!-- n25 -->
<!-- junction -->
<g id="junction1" class="node">
<title>n25</title>
<ellipse fill="black" stroke="black" cx="169.72" cy="-161.81" rx="2.5" ry="2.5"/>
<text text-anchor="middle" x="164.22" y="-148.11" font-family="Serif" font-size="14.00">s</text>
</g>
<!-- n1&#45;&#45;n25 -->
<g id="edge1" class="edge">
<title>n1&#45;&#45;n25</title>
<path fill="none" stroke="black" d="M168.19,-131.71C168.71,-141.99 169.31,-153.78 169.57,-159.04"/>
</g>
<!-- n26 -->
<!-- junction -->
<g id="junction2" class="node">
<title>n26</title>
<ellipse fill="black" stroke="black" cx="197.74" cy="-174.53" rx="2.5" ry="2.5"/>
<text text-anchor="middle" x="191.74" y="-180.83" font-family="Serif" font-size="14.00">e</text>
</g>
<!-- n1&#45;&#45;n26 -->
<g id="edge6" class="edge">
<title>n1&#45;&#45;n26</title>
<path fill="none" stroke="black" d="M176.07,-131.09C183.39,-145.76 193.12,-165.27 196.51,-172.07"/>
</g>
<!-- n35 -->
<!-- junction -->
<g id="junction11" class="node">
<title>n35</title>
<ellipse fill="black" stroke="black" cx="145.57" cy="-54.72" rx="2.5" ry="2.5"/>
<text text-anchor="middle" x="139.07" y="-61.02" font-family="Serif" font-size="14.00">i′</text>
</g>
<!-- n1&#45;&#45;n35 -->
<g id="edge32" class="edge">
<title>n1&#45;&#45;n35</title>
<path fill="none" stroke="black" d="M160.63,-95.49C155.55,-81.73 149,-64.01 146.55,-57.38"/>
</g>
<!-- n2 -->
<g id="box2" class="node">
<title>n2</title>
<ellipse fill="none" stroke="black" cx="239.13" cy="-131.8" rx="47.86" ry="18"/>
<text text-anchor="middle" x="239.13" y="-128.1" font-family="Serif" font-size="14.00">exposure_i2</text>
</g>
<!-- n2&#45;&#45;n25 -->
<g id="edge2" class="edge">
<title>n2&#45;&#45;n25</title>
<path fill="none" stroke="black" d="M207.27,-145.58C193.01,-151.74 178.11,-158.18 172.27,-160.71"/>
</g>
<!-- n2&#45;&#45;n26 -->
<g id="edge7" class="edge">
<title>n2&#45;&#45;n26</title>
<path fill="none" stroke="black" d="M222.77,-148.69C213.73,-158.02 203.54,-168.54 199.51,-172.7"/>
</g>
<!-- n36 -->
<!-- junction -->
<g id="junction12" class="node">
<title>n36</title>
<ellipse fill="black" stroke="black" cx="276.35" cy="-77.86" rx="2.5" ry="2.5"/>
<text text-anchor="middle" x="265.85" y="-84.16" font-family="Serif" font-size="14.00">i2′</text>
</g>
<!-- n2&#45;&#45;n36 -->
<g id="edge34" class="edge">
<title>n2&#45;&#45;n36</title>
<path fill="none" stroke="black" d="M251.32,-114.14C259.97,-101.6 270.73,-86.01 274.75,-80.19"/>
</g>
<!-- n3 -->
<g id="box3" class="node">
<title>n3</title>
<ellipse fill="none" stroke="black" cx="124.61" cy="-186.96" rx="44.98" ry="18"/>
<text text-anchor="middle" x="124.61" y="-183.26" font-family="Serif" font-size="14.00">exposure_a</text>
</g>
<!-- n3&#45;&#45;n25 -->
<g id="edge3" class="edge">
<title>n3&#45;&#45;n25</title>
<path fill="none" stroke="black" d="M151.37,-172.04C158.05,-168.32 164.21,-164.88 167.42,-163.09"/>
</g>
<!-- n3&#45;&#45;n26 -->
<g id="edge8" class="edge">
<title>n3&#45;&#45;n26</title>
<path fill="none" stroke="black" d="M166.3,-179.87C178.36,-177.82 189.66,-175.9 194.81,-175.03"/>
</g>
<!-- n37 -->
<!-- junction -->
<g id="junction13" class="node">
<title>n37</title>
<ellipse fill="black" stroke="black" cx="59.61" cy="-187.53" rx="2.5" ry="2.5"/>
<text text-anchor="middle" x="51.61" y="-193.83" font-family="Serif" font-size="14.00">a′</text>
</g>
<!-- n3&#45;&#45;n37 -->
<g id="edge36" class="edge">
<title>n3&#45;&#45;n37</title>
<path fill="none" stroke="black" d="M79.46,-187.36C72.18,-187.42 65.91,-187.48 62.45,-187.51"/>
</g>
<!-- n4 -->
<g id="box4" class="node">
<title>n4</title>
<ellipse fill="none" stroke="black" cx="195" cy="-223.73" rx="44.98" ry="18"/>
<text text-anchor="middle" x="195" y="-220.03" font-family="Serif" font-size="14.00">exposure_e</text>
</g>
<!-- n4&#45;&#45;n25 -->
<g id="edge4" class="edge">
<title>n4&#45;&#45;n25</title>
<path fill="none" stroke="black" d="M187.55,-205.49C181.49,-190.65 173.5,-171.09 170.72,-164.28"/>
</g>
<!-- n4&#45;&#45;n26 -->
<g id="edge9" class="edge">
<title>n4&#45;&#45;n26</title>
<path fill="none" stroke="black" d="M196.02,-205.41C196.6,-194.92 197.28,-182.79 197.58,-177.39"/>
</g>
<!-- n34 -->
<!-- junction -->
<g id="junction10" class="node">
<title>n34</title>
<ellipse fill="black" stroke="black" cx="236.36" cy="-276.57" rx="2.5" ry="2.5"/>
<text text-anchor="middle" x="228.36" y="-282.87" font-family="Serif" font-size="14.00">e′</text>
</g>
<!-- n4&#45;&#45;n34 -->
<g id="edge26" class="edge">
<title>n4&#45;&#45;n34</title>
<path fill="none" stroke="black" d="M208.77,-241.32C218.36,-253.57 230.18,-268.68 234.59,-274.31"/>
</g>
<!-- n5 -->
<g id="box5" class="node">
<title>n5</title>
<ellipse fill="none" stroke="black" cx="303.49" cy="-268.88" rx="38.7" ry="18"/>
<text text-anchor="middle" x="303.49" y="-265.18" font-family="Serif" font-size="14.00">exposure′</text>
</g>
<!-- n27 -->
<!-- junction -->
<g id="junction3" class="node">
<title>n27</title>
<ellipse fill="black" stroke="black" cx="367.68" cy="-264.18" rx="2.5" ry="2.5"/>
<text text-anchor="middle" x="363.18" y="-270.48" font-family="Serif" font-size="14.00">i</text>
</g>
<!-- n5&#45;&#45;n27 -->
<g id="edge12" class="edge">
<title>n5&#45;&#45;n27</title>
<path fill="none" stroke="black" d="M341.94,-266.07C351.56,-265.36 360.38,-264.72 364.76,-264.4"/>
</g>
<!-- n33 -->
<!-- junction -->
<g id="junction9" class="node">
<title>n33</title>
<ellipse fill="black" stroke="black" cx="252.03" cy="-297.23" rx="2.5" ry="2.5"/>
<text text-anchor="middle" x="244.53" y="-283.53" font-family="Serif" font-size="14.00">s′</text>
</g>
<!-- n5&#45;&#45;n33 -->
<g id="edge21" class="edge">
<title>n5&#45;&#45;n33</title>
<path fill="none" stroke="black" d="M278.06,-282.89C268.54,-288.13 258.96,-293.41 254.55,-295.84"/>
</g>
<!-- n5&#45;&#45;n34 -->
<g id="edge27" class="edge">
<title>n5&#45;&#45;n34</title>
<path fill="none" stroke="black" d="M265.61,-273.22C254.43,-274.5 243.89,-275.71 239.09,-276.26"/>
</g>
<!-- n6 -->
<g id="box6" class="node">
<title>n6</title>
<ellipse fill="none" stroke="black" cx="188.38" cy="-324.09" rx="49.4" ry="18"/>
<text text-anchor="middle" x="188.38" y="-320.39" font-family="Serif" font-size="14.00">exposure_i2′</text>
</g>
<!-- n28 -->
<!-- junction -->
<g id="junction4" class="node">
<title>n28</title>
<ellipse fill="black" stroke="black" cx="153.42" cy="-379" rx="2.5" ry="2.5"/>
<text text-anchor="middle" x="144.92" y="-385.3" font-family="Serif" font-size="14.00">i2</text>
</g>
<!-- n6&#45;&#45;n28 -->
<g id="edge14" class="edge">
<title>n6&#45;&#45;n28</title>
<path fill="none" stroke="black" d="M176.93,-342.07C168.81,-354.83 158.7,-370.71 154.93,-376.63"/>
</g>
<!-- n6&#45;&#45;n33 -->
<g id="edge22" class="edge">
<title>n6&#45;&#45;n33</title>
<path fill="none" stroke="black" d="M220.95,-310.34C232.69,-305.39 244.3,-300.49 249.37,-298.35"/>
</g>
<!-- n6&#45;&#45;n34 -->
<g id="edge28" class="edge">
<title>n6&#45;&#45;n34</title>
<path fill="none" stroke="black" d="M205.7,-306.93C216.65,-296.09 229.62,-283.24 234.43,-278.47"/>
</g>
<!-- n7 -->
<g id="box7" class="node">
<title>n7</title>
<ellipse fill="none" stroke="black" cx="290.4" cy="-321.24" rx="47.19" ry="18"/>
<text text-anchor="middle" x="290.4" y="-317.54" font-family="Serif" font-size="14.00">exposure_a′</text>
</g>
<!-- n29 -->
<!-- junction -->
<g id="junction5" class="node">
<title>n29</title>
<ellipse fill="black" stroke="black" cx="329.79" cy="-370.74" rx="2.5" ry="2.5"/>
<text text-anchor="middle" x="323.79" y="-377.04" font-family="Serif" font-size="14.00">a</text>
</g>
<!-- n7&#45;&#45;n29 -->
<g id="edge16" class="edge">
<title>n7&#45;&#45;n29</title>
<path fill="none" stroke="black" d="M304.4,-338.83C313.24,-349.95 323.76,-363.17 327.94,-368.42"/>
</g>
<!-- n7&#45;&#45;n33 -->
<g id="edge23" class="edge">
<title>n7&#45;&#45;n33</title>
<path fill="none" stroke="black" d="M265.45,-305.63C260.87,-302.76 256.77,-300.2 254.34,-298.68"/>
</g>
<!-- n7&#45;&#45;n34 -->
<g id="edge29" class="edge">
<title>n7&#45;&#45;n34</title>
<path fill="none" stroke="black" d="M270.28,-304.61C258.03,-294.49 243.76,-282.69 238.47,-278.32"/>
</g>
<!-- n8 -->
<g id="box8" class="node">
<title>n8</title>
<ellipse fill="none" stroke="black" cx="234.77" cy="-229.97" rx="47.19" ry="18"/>
<text text-anchor="middle" x="234.77" y="-226.27" font-family="Serif" font-size="14.00">exposure_e′</text>
</g>
<!-- n8&#45;&#45;n26 -->
<g id="edge10" class="edge">
<title>n8&#45;&#45;n26</title>
<path fill="none" stroke="black" d="M222.85,-212.12C214.22,-199.21 203.4,-183 199.36,-176.95"/>
</g>
<!-- n8&#45;&#45;n33 -->
<g id="edge24" class="edge">
<title>n8&#45;&#45;n33</title>
<path fill="none" stroke="black" d="M239.48,-248.35C243.63,-264.53 249.32,-286.68 251.31,-294.42"/>
</g>
<!-- n8&#45;&#45;n34 -->
<g id="edge30" class="edge">
<title>n8&#45;&#45;n34</title>
<path fill="none" stroke="black" d="M235.4,-248.39C235.72,-257.95 236.09,-268.67 236.26,-273.68"/>
</g>
<!-- n9 -->
<!-- n9&#45;&#45;n25 -->
<g id="edge5" class="edge">
<title>n9&#45;&#45;n25</title>
<path fill="none" stroke="black" d="M113.27,-132.47C116.15,-133.97 156.48,-154.93 167.15,-160.48"/>
</g>
<!-- n10 -->
<!-- n10&#45;&#45;n26 -->
<g id="edge11" class="edge">
<title>n10&#45;&#45;n26</title>
<path fill="none" stroke="black" d="M216.7,-124.65C215.75,-127.17 202.43,-162.2 198.7,-172"/>
</g>
<!-- n11 -->
<!-- n11&#45;&#45;n27 -->
<g id="edge13" class="edge">
<title>n11&#45;&#45;n27</title>
<path fill="none" stroke="black" d="M427.26,-263.41C424.22,-263.45 381.65,-264 370.39,-264.15"/>
</g>
<!-- n12 -->
<!-- n12&#45;&#45;n28 -->
<g id="edge15" class="edge">
<title>n12&#45;&#45;n28</title>
<path fill="none" stroke="black" d="M124.29,-429.98C125.77,-427.4 146.22,-391.61 151.94,-381.59"/>
</g>
<!-- n13 -->
<!-- n13&#45;&#45;n29 -->
<g id="edge17" class="edge">
<title>n13&#45;&#45;n29</title>
<path fill="none" stroke="black" d="M366.2,-415.92C364.36,-413.64 338.79,-381.91 331.64,-373.04"/>
</g>
<!-- n14 -->
<!-- n30 -->
<!-- junction -->
<g id="junction6" class="node">
<title>n30</title>
<ellipse fill="black" stroke="black" cx="323.91" cy="-164.5" rx="2.5" ry="2.5"/>
<text text-anchor="middle" x="318.41" y="-170.8" font-family="Serif" font-size="14.00">r</text>
</g>
<!-- n14&#45;&#45;n30 -->
<g id="edge18" class="edge">
<title>n14&#45;&#45;n30</title>
<path fill="none" stroke="black" d="M270.65,-172.46C273.35,-172.05 310.74,-166.47 321.2,-164.9"/>
</g>
<!-- n15 -->
<!-- n31 -->
<!-- junction -->
<g id="junction7" class="node">
<title>n31</title>
<ellipse fill="black" stroke="black" cx="377.91" cy="-110.5" rx="2.5" ry="2.5"/>
<text text-anchor="middle" x="368.91" y="-116.8" font-family="Serif" font-size="14.00">r2</text>
</g>
<!-- n15&#45;&#45;n31 -->
<g id="edge19" class="edge">
<title>n15&#45;&#45;n31</title>
<path fill="none" stroke="black" d="M324.65,-118.46C327.35,-118.05 364.74,-112.47 375.2,-110.9"/>
</g>
<!-- n16 -->
<!-- n32 -->
<!-- junction -->
<g id="junction8" class="node">
<title>n32</title>
<ellipse fill="black" stroke="black" cx="377.91" cy="-182.5" rx="2.5" ry="2.5"/>
<text text-anchor="middle" x="370.91" y="-188.8" font-family="Serif" font-size="14.00">d</text>
</g>
<!-- n16&#45;&#45;n32 -->
<g id="edge20" class="edge">
<title>n16&#45;&#45;n32</title>
<path fill="none" stroke="black" d="M324.65,-190.46C327.35,-190.05 364.74,-184.47 375.2,-182.9"/>
</g>
<!-- n17 -->
<!-- n17&#45;&#45;n33 -->
<g id="edge25" class="edge">
<title>n17&#45;&#45;n33</title>
<path fill="none" stroke="black" d="M254.09,-362.38C253.93,-357.54 252.5,-312.1 252.12,-300.12"/>
</g>
<!-- n18 -->
<!-- n18&#45;&#45;n34 -->
<g id="edge31" class="edge">
<title>n18&#45;&#45;n34</title>
<path fill="none" stroke="black" d="M218.75,-329.12C219.64,-326.46 232,-289.56 235.46,-279.24"/>
</g>
<!-- n19 -->
<!-- n19&#45;&#45;n35 -->
<g id="edge33" class="edge">
<title>n19&#45;&#45;n35</title>
<path fill="none" stroke="black" d="M125.44,-0.66C126.46,-3.39 140.59,-41.36 144.55,-51.98"/>
</g>
<!-- n20 -->
<!-- n20&#45;&#45;n36 -->
<g id="edge35" class="edge">
<title>n20&#45;&#45;n36</title>
<path fill="none" stroke="black" d="M309.2,-28.69C307.53,-31.2 284.06,-66.33 277.85,-75.62"/>
</g>
<!-- n21 -->
<!-- n21&#45;&#45;n37 -->
<g id="edge37" class="edge">
<title>n21&#45;&#45;n37</title>
<path fill="none" stroke="black" d="M0.67,-181.76C3.68,-182.05 45.79,-186.18 56.92,-187.27"/>
</g>
<!-- n22 -->
<!-- n38 -->
<!-- junction -->
<g id="junction14" class="node">
<title>n38</title>
<ellipse fill="black" stroke="black" cx="161.91" cy="-272.5" rx="2.5" ry="2.5"/>
<text text-anchor="middle" x="154.41" y="-278.8" font-family="Serif" font-size="14.00">r′</text>
</g>
<!-- n22&#45;&#45;n38 -->
<g id="edge38" class="edge">
<title>n22&#45;&#45;n38</title>
<path fill="none" stroke="black" d="M108.65,-280.46C111.35,-280.05 148.74,-274.47 159.2,-272.9"/>
</g>
<!-- n23 -->
<!-- n39 -->
<!-- junction -->
<g id="junction15" class="node">
<title>n39</title>
<ellipse fill="black" stroke="black" cx="377.91" cy="-74.5" rx="2.5" ry="2.5"/>
<text text-anchor="middle" x="366.91" y="-80.8" font-family="Serif" font-size="14.00">r2′</text>
</g>
<!-- n23&#45;&#45;n39 -->
<g id="edge39" class="edge">
<title>n23&#45;&#45;n39</title>
<path fill="none" stroke="black" d="M324.65,-82.46C327.35,-82.05 364.74,-76.47 375.2,-74.9"/>
</g>
<!-- n24 -->
<!-- n40 -->
<!-- junction -->
<g id="junction16" class="node">
<title>n40</title>
<ellipse fill="black" stroke="black" cx="413.91" cy="-128.5" rx="2.5" ry="2.5"/>
<text text-anchor="middle" x="404.91" y="-134.8" font-family="Serif" font-size="14.00">d′</text>
</g>
<!-- n24&#45;&#45;n40 -->
<g id="edge40" class="edge">
<title>n24&#45;&#45;n40</title>
<path fill="none" stroke="black" d="M360.65,-136.46C363.35,-136.05 400.74,-130.47 411.2,-128.9"/>
</g>
</g>
</svg>
