<?xml version="1.0" encoding="UTF-8" standalone="no"?>
<!DOCTYPE svg PUBLIC "-//W3C//DTD SVG 1.1//EN"
 "http://www.w3.org/Graphics/SVG/1.1/DTD/svg11.dtd">
<!-- Generated by graphviz version 7.1.0 (0)
 -->
<!-- Title: G Pages: 1 -->
<svg width="385pt" height="473pt"
 viewBox="0.00 0.00 385.12 472.70" xmlns="http://www.w3.org/2000/svg" xmlns:xlink="http://www.w3.org/1999/xlink">
<g id="graph0" class="graph" transform="scale(1 1) rotate(0) translate(4 468.7)">
<title>G</title>
<polygon fill="white" stroke="none" points="-4,4 -4,-468.7 381.12,-468.7 381.12,4 -4,4"/>
<!-- n1 -->
<g id="box1" class="node">
<title>n1</title>
<ellipse fill="none" stroke="black" cx="85.61" cy="-374.22" rx="37.17" ry="18"/>
<text text-anchor="middle" x="85.61" y="-370.52" font-family="Serif" font-size="14.00">exposure</text>
</g>
<!-- n20 -->
<!-- junction -->
<g id="junction1" class="node">
<title>n20</title>
<ellipse fill="black" stroke="black" cx="72.75" cy="-317.98" rx="2.5" ry="2.5"/>
<text text-anchor="middle" x="67.25" y="-304.28" font-family="Serif" font-size="14.00">s</text>
</g>
<!-- n1&#45;&#45;n20 -->
<g id="edge1" class="edge">
<title>n1&#45;&#45;n20</title>
<path fill="none" stroke="black" d="M81.47,-356.12C78.53,-343.27 74.86,-327.22 73.39,-320.81"/>
</g>
<!-- n21 -->
<!-- junction -->
<g id="junction2" class="node">
<title>n21</title>
<ellipse fill="black" stroke="black" cx="96.87" cy="-313.84" rx="2.5" ry="2.5"/>
<text text-anchor="middle" x="90.87" y="-320.14" font-family="Serif" font-size="14.00">e</text>
</g>
<!-- n1&#45;&#45;n21 -->
<g id="edge6" class="edge">
<title>n1&#45;&#45;n21</title>
<path fill="none" stroke="black" d="M88.99,-356.11C91.63,-341.93 95.07,-323.51 96.36,-316.61"/>
</g>
<!-- n22 -->
<!-- junction -->
<g id="junction3" class="node">
<title>n22</title>
<ellipse fill="black" stroke="black" cx="150.22" cy="-403.6" rx="2.5" ry="2.5"/>
<text text-anchor="middle" x="145.72" y="-409.9" font-family="Serif" font-size="14.00">i</text>
</g>
<!-- n1&#45;&#45;n22 -->
<g id="edge14" class="edge">
<title>n1&#45;&#45;n22</title>
<path fill="none" stroke="black" d="M113.01,-386.68C126.77,-392.94 141.74,-399.75 147.63,-402.43"/>
</g>
<!-- n2 -->
<g id="box2" class="node">
<title>n2</title>
<ellipse fill="none" stroke="black" cx="151.33" cy="-311.31" rx="37.17" ry="18"/>
<text text-anchor="middle" x="151.33" y="-307.61" font-family="Serif" font-size="14.00">exposure</text>
</g>
<!-- n2&#45;&#45;n20 -->
<g id="edge2" class="edge">
<title>n2&#45;&#45;n20</title>
<path fill="none" stroke="black" d="M114.34,-314.45C98.41,-315.8 81.99,-317.19 75.56,-317.74"/>
</g>
<!-- n2&#45;&#45;n21 -->
<g id="edge7" class="edge">
<title>n2&#45;&#45;n21</title>
<path fill="none" stroke="black" d="M114.1,-313.04C108.12,-313.32 102.88,-313.56 99.8,-313.7"/>
</g>
<!-- n23 -->
<!-- junction -->
<g id="junction4" class="node">
<title>n23</title>
<ellipse fill="black" stroke="black" cx="216.5" cy="-304.86" rx="2.5" ry="2.5"/>
<text text-anchor="middle" x="208" y="-311.16" font-family="Serif" font-size="14.00">i2</text>
</g>
<!-- n2&#45;&#45;n23 -->
<g id="edge18" class="edge">
<title>n2&#45;&#45;n23</title>
<path fill="none" stroke="black" d="M188.1,-307.67C198.73,-306.62 208.75,-305.63 213.54,-305.16"/>
</g>
<!-- n3 -->
<g id="box3" class="node">
<title>n3</title>
<ellipse fill="none" stroke="black" cx="57.27" cy="-259.71" rx="37.17" ry="18"/>
<text text-anchor="middle" x="57.27" y="-256.01" font-family="Serif" font-size="14.00">exposure</text>
</g>
<!-- n3&#45;&#45;n20 -->
<g id="edge3" class="edge">
<title>n3&#45;&#45;n20</title>
<path fill="none" stroke="black" d="M62.09,-277.83C65.7,-291.46 70.32,-308.86 72.05,-315.37"/>
</g>
<!-- n3&#45;&#45;n21 -->
<g id="edge8" class="edge">
<title>n3&#45;&#45;n21</title>
<path fill="none" stroke="black" d="M69.8,-276.84C79.05,-289.48 90.75,-305.47 95.12,-311.44"/>
</g>
<!-- n24 -->
<!-- junction -->
<g id="junction5" class="node">
<title>n24</title>
<ellipse fill="black" stroke="black" cx="80.37" cy="-191.91" rx="2.5" ry="2.5"/>
<text text-anchor="middle" x="74.37" y="-198.21" font-family="Serif" font-size="14.00">a</text>
</g>
<!-- n3&#45;&#45;n24 -->
<g id="edge23" class="edge">
<title>n3&#45;&#45;n24</title>
<path fill="none" stroke="black" d="M63.46,-241.54C69.13,-224.91 77,-201.79 79.54,-194.33"/>
</g>
<!-- n4 -->
<g id="box4" class="node">
<title>n4</title>
<ellipse fill="none" stroke="black" cx="37.09" cy="-345.78" rx="37.17" ry="18"/>
<text text-anchor="middle" x="37.09" y="-342.08" font-family="Serif" font-size="14.00">exposure</text>
</g>
<!-- n4&#45;&#45;n20 -->
<g id="edge4" class="edge">
<title>n4&#45;&#45;n20</title>
<path fill="none" stroke="black" d="M57,-330.25C62.62,-325.87 67.95,-321.71 70.74,-319.54"/>
</g>
<!-- n4&#45;&#45;n21 -->
<g id="edge9" class="edge">
<title>n4&#45;&#45;n21</title>
<path fill="none" stroke="black" d="M69.11,-336.32C81.57,-329.76 93.54,-321.7 96.43,-316.73"/>
</g>
<!-- n4&#45;&#45;n21 -->
<g id="edge10" class="edge">
<title>n4&#45;&#45;n21</title>
<path fill="none" stroke="black" d="M53.98,-329.49C68.15,-320.72 87.09,-312.14 94.23,-312.6"/>
</g>
<!-- n5 -->
<g id="box5" class="node">
<title>n5</title>
<ellipse fill="none" stroke="black" cx="83.48" cy="-243.91" rx="36.49" ry="18"/>
<text text-anchor="middle" x="83.48" y="-240.21" font-family="Serif" font-size="14.00">infection</text>
</g>
<!-- n5&#45;&#45;n21 -->
<g id="edge11" class="edge">
<title>n5&#45;&#45;n21</title>
<path fill="none" stroke="black" d="M87,-262.28C90.29,-279.44 94.9,-303.54 96.39,-311.31"/>
</g>
<!-- n5&#45;&#45;n24 -->
<g id="edge24" class="edge">
<title>n5&#45;&#45;n24</title>
<path fill="none" stroke="black" d="M82.38,-225.43C81.69,-213.99 80.88,-200.42 80.53,-194.68"/>
</g>
<!-- n6 -->
<g id="box6" class="node">
<title>n6</title>
<ellipse fill="none" stroke="black" cx="142.33" cy="-162.89" rx="35.14" ry="18"/>
<text text-anchor="middle" x="142.33" y="-159.19" font-family="Serif" font-size="14.00">recovery</text>
</g>
<!-- n6&#45;&#45;n24 -->
<g id="edge25" class="edge">
<title>n6&#45;&#45;n24</title>
<path fill="none" stroke="black" d="M116.05,-175.2C102.86,-181.38 88.5,-188.1 82.85,-190.75"/>
</g>
<!-- n25 -->
<!-- junction -->
<g id="junction6" class="node">
<title>n25</title>
<ellipse fill="black" stroke="black" cx="210.05" cy="-170.11" rx="2.5" ry="2.5"/>
<text text-anchor="middle" x="204.55" y="-176.41" font-family="Serif" font-size="14.00">r</text>
</g>
<!-- n6&#45;&#45;n25 -->
<g id="edge27" class="edge">
<title>n6&#45;&#45;n25</title>
<path fill="none" stroke="black" d="M176.98,-166.58C189.48,-167.92 201.83,-169.24 207.23,-169.81"/>
</g>
<!-- n7 -->
<g id="box7" class="node">
<title>n7</title>
<ellipse fill="none" stroke="black" cx="111.86" cy="-377.13" rx="26.48" ry="18"/>
<text text-anchor="middle" x="111.86" y="-373.43" font-family="Serif" font-size="14.00">illness</text>
</g>
<!-- n7&#45;&#45;n21 -->
<g id="edge12" class="edge">
<title>n7&#45;&#45;n21</title>
<path fill="none" stroke="black" d="M107.6,-359.17C104,-343.96 99.17,-323.54 97.48,-316.42"/>
</g>
<!-- n7&#45;&#45;n22 -->
<g id="edge15" class="edge">
<title>n7&#45;&#45;n22</title>
<path fill="none" stroke="black" d="M130.59,-390.06C137.59,-394.89 144.67,-399.77 148.1,-402.14"/>
</g>
<!-- n8 -->
<g id="box8" class="node">
<title>n8</title>
<ellipse fill="none" stroke="black" cx="206.46" cy="-369.56" rx="26.48" ry="18"/>
<text text-anchor="middle" x="206.46" y="-365.86" font-family="Serif" font-size="14.00">illness</text>
</g>
<!-- n8&#45;&#45;n22 -->
<g id="edge16" class="edge">
<title>n8&#45;&#45;n22</title>
<path fill="none" stroke="black" d="M186.47,-381.66C173.59,-389.46 158.22,-398.76 152.51,-402.22"/>
</g>
<!-- n8&#45;&#45;n23 -->
<g id="edge19" class="edge">
<title>n8&#45;&#45;n23</title>
<path fill="none" stroke="black" d="M209.31,-351.19C211.72,-335.65 214.96,-314.78 216.09,-307.5"/>
</g>
<!-- n9 -->
<g id="box9" class="node">
<title>n9</title>
<ellipse fill="none" stroke="black" cx="274.11" cy="-339.38" rx="25.13" ry="18"/>
<text text-anchor="middle" x="274.11" y="-335.68" font-family="Serif" font-size="14.00">death</text>
</g>
<!-- n9&#45;&#45;n23 -->
<g id="edge20" class="edge">
<title>n9&#45;&#45;n23</title>
<path fill="none" stroke="black" d="M254.61,-327.69C241.29,-319.71 225,-309.96 218.93,-306.32"/>
</g>
<!-- n27 -->
<!-- junction -->
<g id="junction8" class="node">
<title>n27</title>
<ellipse fill="black" stroke="black" cx="328.97" cy="-364.7" rx="2.5" ry="2.5"/>
<text text-anchor="middle" x="321.97" y="-371" font-family="Serif" font-size="14.00">d</text>
</g>
<!-- n9&#45;&#45;n27 -->
<g id="edge33" class="edge">
<title>n9&#45;&#45;n27</title>
<path fill="none" stroke="black" d="M295.48,-349.24C307.27,-354.68 320.64,-360.85 326.25,-363.45"/>
</g>
<!-- n10 -->
<g id="box10" class="node">
<title>n10</title>
<ellipse fill="none" stroke="black" cx="226.34" cy="-235.08" rx="35.14" ry="18"/>
<text text-anchor="middle" x="226.34" y="-231.38" font-family="Serif" font-size="14.00">recovery</text>
</g>
<!-- n10&#45;&#45;n23 -->
<g id="edge21" class="edge">
<title>n10&#45;&#45;n23</title>
<path fill="none" stroke="black" d="M223.75,-253.42C221.34,-270.54 217.95,-294.58 216.85,-302.34"/>
</g>
<!-- n10&#45;&#45;n25 -->
<g id="edge28" class="edge">
<title>n10&#45;&#45;n25</title>
<path fill="none" stroke="black" d="M221.8,-216.98C217.89,-201.36 212.58,-180.18 210.72,-172.79"/>
</g>
<!-- n11 -->
<g id="box11" class="node">
<title>n11</title>
<ellipse fill="none" stroke="black" cx="223.92" cy="-108.82" rx="35.14" ry="18"/>
<text text-anchor="middle" x="223.92" y="-105.12" font-family="Serif" font-size="14.00">recovery</text>
</g>
<!-- n11&#45;&#45;n25 -->
<g id="edge29" class="edge">
<title>n11&#45;&#45;n25</title>
<path fill="none" stroke="black" d="M219.84,-126.88C216.58,-141.29 212.3,-160.19 210.7,-167.27"/>
</g>
<!-- n26 -->
<!-- junction -->
<g id="junction7" class="node">
<title>n26</title>
<ellipse fill="black" stroke="black" cx="246.83" cy="-54.81" rx="2.5" ry="2.5"/>
<text text-anchor="middle" x="237.83" y="-61.11" font-family="Serif" font-size="14.00">r2</text>
</g>
<!-- n11&#45;&#45;n26 -->
<g id="edge31" class="edge">
<title>n11&#45;&#45;n26</title>
<path fill="none" stroke="black" d="M231.55,-90.84C236.75,-78.56 243.15,-63.48 245.7,-57.47"/>
</g>
<!-- n12 -->
<!-- n12&#45;&#45;n20 -->
<g id="edge5" class="edge">
<title>n12&#45;&#45;n20</title>
<path fill="none" stroke="black" d="M2.53,-325.12C7.79,-324.58 57.6,-319.52 69.97,-318.26"/>
</g>
<!-- n13 -->
<!-- n13&#45;&#45;n21 -->
<g id="edge13" class="edge">
<title>n13&#45;&#45;n21</title>
<path fill="none" stroke="black" d="M115.91,-275.44C114.12,-279.04 101.8,-303.9 97.99,-311.58"/>
</g>
<!-- n14 -->
<!-- n14&#45;&#45;n22 -->
<g id="edge17" class="edge">
<title>n14&#45;&#45;n22</title>
<path fill="none" stroke="black" d="M147.53,-463.81C147.72,-459.38 149.57,-418.1 150.09,-406.58"/>
</g>
<!-- n15 -->
<!-- n15&#45;&#45;n23 -->
<g id="edge22" class="edge">
<title>n15&#45;&#45;n23</title>
<path fill="none" stroke="black" d="M268.75,-290.03C266.11,-290.78 229.42,-301.2 219.15,-304.11"/>
</g>
<!-- n16 -->
<!-- n16&#45;&#45;n24 -->
<g id="edge26" class="edge">
<title>n16&#45;&#45;n24</title>
<path fill="none" stroke="black" d="M33.55,-152.04C35.94,-154.07 69.39,-182.56 78.24,-190.09"/>
</g>
<!-- n17 -->
<!-- n17&#45;&#45;n25 -->
<g id="edge30" class="edge">
<title>n17&#45;&#45;n25</title>
<path fill="none" stroke="black" d="M269.35,-155.16C266.33,-155.92 223.95,-166.61 212.75,-169.43"/>
</g>
<!-- n18 -->
<!-- n18&#45;&#45;n26 -->
<g id="edge32" class="edge">
<title>n18&#45;&#45;n26</title>
<path fill="none" stroke="black" d="M260.41,-0.66C259.72,-3.39 250.18,-41.42 247.52,-52.07"/>
</g>
<!-- n19 -->
<!-- n19&#45;&#45;n27 -->
<g id="edge34" class="edge">
<title>n19&#45;&#45;n27</title>
<path fill="none" stroke="black" d="M376.48,-395.67C374.08,-394.1 340.71,-372.36 331.38,-366.27"/>
</g>
</g>
</svg>
