<?xml version="1.0" encoding="UTF-8" standalone="no"?>
<!DOCTYPE svg PUBLIC "-//W3C//DTD SVG 1.1//EN"
 "http://www.w3.org/Graphics/SVG/1.1/DTD/svg11.dtd">
<!-- Generated by graphviz version 7.1.0 (0)
 -->
<!-- Title: G Pages: 1 -->
<svg width="290pt" height="239pt"
 viewBox="0.00 0.00 289.75 238.78" xmlns="http://www.w3.org/2000/svg" xmlns:xlink="http://www.w3.org/1999/xlink">
<g id="graph0" class="graph" transform="scale(1 1) rotate(0) translate(4 234.78)">
<title>G</title>
<polygon fill="white" stroke="none" points="-4,4 -4,-234.78 285.75,-234.78 285.75,4 -4,4"/>
<!-- n1 -->
<g id="box1" class="node">
<title>n1</title>
<ellipse fill="none" stroke="black" cx="203.18" cy="-122.69" rx="43.62" ry="18"/>
<text text-anchor="middle" x="203.18" y="-118.99" font-family="Serif" font-size="14.00">crossexp12</text>
</g>
<!-- n10 -->
<!-- junction -->
<g id="junction1" class="node">
<title>n10</title>
<ellipse fill="black" stroke="black" cx="162.45" cy="-170.7" rx="2.5" ry="2.5"/>
<text text-anchor="middle" x="144.45" y="-177" font-family="Serif" font-size="14.00">pop1</text>
</g>
<!-- n1&#45;&#45;n10 -->
<g id="edge1" class="edge">
<title>n1&#45;&#45;n10</title>
<path fill="none" stroke="black" d="M188.48,-140.02C179.36,-150.77 168.61,-163.45 164.34,-168.48"/>
</g>
<!-- n11 -->
<!-- junction -->
<g id="junction2" class="node">
<title>n11</title>
<ellipse fill="black" stroke="black" cx="196.2" cy="-60.06" rx="2.5" ry="2.5"/>
<text text-anchor="middle" x="209.2" y="-66.36" font-family="Serif" font-size="14.00">pop2</text>
</g>
<!-- n1&#45;&#45;n11 -->
<g id="edge5" class="edge">
<title>n1&#45;&#45;n11</title>
<path fill="none" stroke="black" d="M201.12,-104.24C199.48,-89.52 197.33,-70.2 196.52,-62.97"/>
</g>
<!-- n2 -->
<g id="box2" class="node">
<title>n2</title>
<ellipse fill="none" stroke="black" cx="105.05" cy="-144.94" rx="43.62" ry="18"/>
<text text-anchor="middle" x="105.05" y="-141.24" font-family="Serif" font-size="14.00">crossexp13</text>
</g>
<!-- n2&#45;&#45;n10 -->
<g id="edge2" class="edge">
<title>n2&#45;&#45;n10</title>
<path fill="none" stroke="black" d="M135.1,-158.42C145.3,-163 155.27,-167.47 159.85,-169.53"/>
</g>
<!-- n12 -->
<!-- junction -->
<g id="junction3" class="node">
<title>n12</title>
<ellipse fill="black" stroke="black" cx="83.37" cy="-85.92" rx="2.5" ry="2.5"/>
<text text-anchor="middle" x="65.37" y="-72.22" font-family="Serif" font-size="14.00">pop3</text>
</g>
<!-- n2&#45;&#45;n12 -->
<g id="edge9" class="edge">
<title>n2&#45;&#45;n12</title>
<path fill="none" stroke="black" d="M98.43,-126.91C93.35,-113.08 86.8,-95.26 84.35,-88.59"/>
</g>
<!-- n3 -->
<g id="box3" class="node">
<title>n3</title>
<ellipse fill="none" stroke="black" cx="134.22" cy="-48.83" rx="43.62" ry="18"/>
<text text-anchor="middle" x="134.22" y="-45.13" font-family="Serif" font-size="14.00">crossexp23</text>
</g>
<!-- n3&#45;&#45;n11 -->
<g id="edge6" class="edge">
<title>n3&#45;&#45;n11</title>
<path fill="none" stroke="black" d="M174.52,-56.13C182.47,-57.57 189.53,-58.85 193.3,-59.53"/>
</g>
<!-- n3&#45;&#45;n12 -->
<g id="edge10" class="edge">
<title>n3&#45;&#45;n12</title>
<path fill="none" stroke="black" d="M112.36,-64.78C101.81,-72.47 90.42,-80.78 85.66,-84.25"/>
</g>
<!-- n4 -->
<g id="box4" class="node">
<title>n4</title>
<ellipse fill="none" stroke="black" cx="206.47" cy="-212.78" rx="25.13" ry="18"/>
<text text-anchor="middle" x="206.47" y="-209.08" font-family="Serif" font-size="14.00">coex1</text>
</g>
<!-- n4&#45;&#45;n10 -->
<g id="edge3" class="edge">
<title>n4&#45;&#45;n10</title>
<path fill="none" stroke="black" d="M191.08,-198.06C181.16,-188.58 169.27,-177.21 164.54,-172.69"/>
</g>
<!-- n5 -->
<g id="box5" class="node">
<title>n5</title>
<ellipse fill="none" stroke="black" cx="256.44" cy="-50.6" rx="25.13" ry="18"/>
<text text-anchor="middle" x="256.44" y="-46.9" font-family="Serif" font-size="14.00">coex2</text>
</g>
<!-- n5&#45;&#45;n11 -->
<g id="edge7" class="edge">
<title>n5&#45;&#45;n11</title>
<path fill="none" stroke="black" d="M231.59,-54.5C218.88,-56.5 204.89,-58.7 199.02,-59.62"/>
</g>
<!-- n6 -->
<g id="box6" class="node">
<title>n6</title>
<ellipse fill="none" stroke="black" cx="25.31" cy="-104.69" rx="25.13" ry="18"/>
<text text-anchor="middle" x="25.31" y="-100.99" font-family="Serif" font-size="14.00">coex3</text>
</g>
<!-- n6&#45;&#45;n12 -->
<g id="edge11" class="edge">
<title>n6&#45;&#45;n12</title>
<path fill="none" stroke="black" d="M48.59,-97.16C60.96,-93.16 74.78,-88.7 80.57,-86.82"/>
</g>
<!-- n7 -->
<!-- n7&#45;&#45;n10 -->
<g id="edge4" class="edge">
<title>n7&#45;&#45;n10</title>
<path fill="none" stroke="black" d="M139.32,-227.02C140.5,-224.15 157.03,-183.9 161.4,-173.26"/>
</g>
<!-- n8 -->
<!-- n8&#45;&#45;n11 -->
<g id="edge8" class="edge">
<title>n8&#45;&#45;n11</title>
<path fill="none" stroke="black" d="M209.38,-0.67C208.71,-3.7 199.29,-46.14 196.8,-57.36"/>
</g>
<!-- n9 -->
<!-- n9&#45;&#45;n12 -->
<g id="edge12" class="edge">
<title>n9&#45;&#45;n12</title>
<path fill="none" stroke="black" d="M44.94,-38.86C46.9,-41.26 74.36,-74.88 81.62,-83.77"/>
</g>
</g>
</svg>
