<?xml version="1.0" encoding="UTF-8" standalone="no"?>
<!DOCTYPE svg PUBLIC "-//W3C//DTD SVG 1.1//EN"
 "http://www.w3.org/Graphics/SVG/1.1/DTD/svg11.dtd">
<!-- Generated by graphviz version 7.1.0 (0)
 -->
<!-- Title: G Pages: 1 -->
<svg width="545pt" height="112pt"
 viewBox="0.00 0.00 545.00 112.00" xmlns="http://www.w3.org/2000/svg" xmlns:xlink="http://www.w3.org/1999/xlink">
<g id="graph0" class="graph" transform="scale(1 1) rotate(0) translate(4 108)">
<title>G</title>
<polygon fill="white" stroke="none" points="-4,4 -4,-108 541,-108 541,4 -4,4"/>
<!-- s1 -->
<g id="node1" class="node">
<title>s1</title>
<ellipse fill="#6c9ac3" stroke="#6c9ac3" cx="18" cy="-64" rx="18" ry="18"/>
<text text-anchor="middle" x="18" y="-60.3" font-family="Times,serif" font-size="14.00">S</text>
</g>
<!-- t1 -->
<g id="node5" class="node">
<title>t1</title>
<polygon fill="#e28f41" stroke="#e28f41" points="124,-85 82,-85 82,-43 124,-43 124,-85"/>
<text text-anchor="middle" x="103" y="-60.3" font-family="Times,serif" font-size="14.00">exp</text>
</g>
<!-- s1&#45;&gt;t1 -->
<g id="edge1" class="edge">
<title>s1&#45;&gt;t1</title>
<path fill="none" stroke="black" d="M36.2,-64C45.99,-64 58.58,-64 70.12,-64"/>
<polygon fill="black" stroke="black" points="70.09,-67.5 80.09,-64 70.09,-60.5 70.09,-67.5"/>
<text text-anchor="middle" x="59" y="-67.8" font-family="Times,serif" font-size="14.00">1</text>
</g>
<!-- s2 -->
<g id="node2" class="node">
<title>s2</title>
<ellipse fill="#6c9ac3" stroke="#6c9ac3" cx="352" cy="-64" rx="18" ry="18"/>
<text text-anchor="middle" x="352" y="-60.3" font-family="Times,serif" font-size="14.00">I</text>
</g>
<!-- s2&#45;&gt;t1 -->
<g id="edge7" class="edge">
<title>s2&#45;&gt;t1</title>
<path fill="none" stroke="black" d="M333.53,-64C292.25,-64 188.16,-64 135.52,-64"/>
<polygon fill="black" stroke="black" points="135.73,-60.5 125.73,-64 135.73,-67.5 135.73,-60.5"/>
<text text-anchor="middle" x="229" y="-67.8" font-family="Times,serif" font-size="14.00">1</text>
</g>
<!-- t3 -->
<g id="node7" class="node">
<title>t3</title>
<polygon fill="#e28f41" stroke="#e28f41" points="455,-83.5 416,-83.5 416,-44.5 455,-44.5 455,-83.5"/>
<text text-anchor="middle" x="435.5" y="-60.3" font-family="Times,serif" font-size="14.00">rec</text>
</g>
<!-- s2&#45;&gt;t3 -->
<g id="edge5" class="edge">
<title>s2&#45;&gt;t3</title>
<path fill="none" stroke="black" d="M370.28,-64C380.13,-64 392.76,-64 404.2,-64"/>
<polygon fill="black" stroke="black" points="404.02,-67.5 414.02,-64 404.02,-60.5 404.02,-67.5"/>
<text text-anchor="middle" x="393" y="-67.8" font-family="Times,serif" font-size="14.00">1</text>
</g>
<!-- s3 -->
<g id="node3" class="node">
<title>s3</title>
<ellipse fill="#6c9ac3" stroke="#6c9ac3" cx="188" cy="-18" rx="18" ry="18"/>
<text text-anchor="middle" x="188" y="-14.3" font-family="Times,serif" font-size="14.00">E</text>
</g>
<!-- t2 -->
<g id="node6" class="node">
<title>t2</title>
<polygon fill="#e28f41" stroke="#e28f41" points="288,-36 252,-36 252,0 288,0 288,-36"/>
<text text-anchor="middle" x="270" y="-14.3" font-family="Times,serif" font-size="14.00">ill</text>
</g>
<!-- s3&#45;&gt;t2 -->
<g id="edge4" class="edge">
<title>s3&#45;&gt;t2</title>
<path fill="none" stroke="black" d="M206.36,-18C216.32,-18 229.07,-18 240.46,-18"/>
<polygon fill="black" stroke="black" points="240.16,-21.5 250.16,-18 240.16,-14.5 240.16,-21.5"/>
<text text-anchor="middle" x="229" y="-21.8" font-family="Times,serif" font-size="14.00">1</text>
</g>
<!-- s4 -->
<g id="node4" class="node">
<title>s4</title>
<ellipse fill="#6c9ac3" stroke="#6c9ac3" cx="519" cy="-64" rx="18" ry="18"/>
<text text-anchor="middle" x="519" y="-60.3" font-family="Times,serif" font-size="14.00">R</text>
</g>
<!-- t1&#45;&gt;s2 -->
<g id="edge2" class="edge">
<title>t1&#45;&gt;s2</title>
<path fill="none" stroke="black" d="M124.16,-72.82C129.82,-74.91 136.06,-76.87 142,-78 217.96,-92.51 240.25,-93.55 316,-78 318.86,-77.41 321.79,-76.6 324.67,-75.67"/>
<polygon fill="black" stroke="black" points="325.8,-78.98 333.92,-72.18 323.33,-72.44 325.8,-78.98"/>
<text text-anchor="middle" x="229" y="-92.8" font-family="Times,serif" font-size="14.00">1</text>
</g>
<!-- t1&#45;&gt;s3 -->
<g id="edge8" class="edge">
<title>t1&#45;&gt;s3</title>
<path fill="none" stroke="black" d="M124.16,-46.9C129.72,-42.67 135.9,-38.38 142,-35 147.57,-31.91 153.81,-29.15 159.83,-26.8"/>
<polygon fill="black" stroke="black" points="160.61,-30.25 168.82,-23.55 158.22,-23.66 160.61,-30.25"/>
<text text-anchor="middle" x="147" y="-38.8" font-family="Times,serif" font-size="14.00">1</text>
</g>
<!-- t2&#45;&gt;s2 -->
<g id="edge6" class="edge">
<title>t2&#45;&gt;s2</title>
<path fill="none" stroke="black" d="M288.27,-23.03C296.91,-25.91 307.34,-29.96 316,-35 320.78,-37.78 325.56,-41.21 329.99,-44.72"/>
<polygon fill="black" stroke="black" points="327.42,-47.13 337.31,-50.91 331.93,-41.78 327.42,-47.13"/>
<text text-anchor="middle" x="311" y="-38.8" font-family="Times,serif" font-size="14.00">1</text>
</g>
<!-- t3&#45;&gt;s4 -->
<g id="edge3" class="edge">
<title>t3&#45;&gt;s4</title>
<path fill="none" stroke="black" d="M455.4,-64C465.42,-64 477.93,-64 489.13,-64"/>
<polygon fill="black" stroke="black" points="489.08,-67.5 499.08,-64 489.08,-60.5 489.08,-67.5"/>
<text text-anchor="middle" x="478" y="-67.8" font-family="Times,serif" font-size="14.00">1</text>
</g>
</g>
</svg>
