<?xml version="1.0" encoding="UTF-8" standalone="no"?>
<!DOCTYPE svg PUBLIC "-//W3C//DTD SVG 1.1//EN"
 "http://www.w3.org/Graphics/SVG/1.1/DTD/svg11.dtd">
<!-- Generated by graphviz version 7.1.0 (0)
 -->
<!-- Title: G Pages: 1 -->
<svg width="144pt" height="68pt"
 viewBox="0.00 0.00 143.64 68.21" xmlns="http://www.w3.org/2000/svg" xmlns:xlink="http://www.w3.org/1999/xlink">
<g id="graph0" class="graph" transform="scale(1 1) rotate(0) translate(4 64.21)">
<title>G</title>
<polygon fill="white" stroke="none" points="-4,4 -4,-64.21 139.64,-64.21 139.64,4 -4,4"/>
<!-- n1 -->
<g id="node1" class="node">
<title>n1</title>
<ellipse fill="none" stroke="black" cx="10.61" cy="-49.61" rx="10.71" ry="10.71"/>
<text text-anchor="middle" x="10.61" y="-45.91" font-family="Times,serif" font-size="14.00">1</text>
</g>
<!-- n3 -->
<g id="node3" class="node">
<title>n3</title>
<ellipse fill="none" stroke="black" cx="67.82" cy="-29.61" rx="10.71" ry="10.71"/>
<text text-anchor="middle" x="67.82" y="-25.91" font-family="Times,serif" font-size="14.00">3</text>
</g>
<!-- n1&#45;&gt;n3 -->
<g id="edge1" class="edge">
<title>n1&#45;&gt;n3</title>
<path fill="none" stroke="black" d="M21.22,-46.12C29.54,-43.11 41.7,-38.7 51.38,-35.2"/>
<polygon fill="black" stroke="black" points="51.78,-36.91 55.89,-33.57 50.59,-33.62 51.78,-36.91"/>
</g>
<!-- n2 -->
<g id="node2" class="node">
<title>n2</title>
<ellipse fill="none" stroke="black" cx="10.61" cy="-10.61" rx="10.71" ry="10.71"/>
<text text-anchor="middle" x="10.61" y="-6.91" font-family="Times,serif" font-size="14.00">2</text>
</g>
<!-- n2&#45;&gt;n3 -->
<g id="edge2" class="edge">
<title>n2&#45;&gt;n3</title>
<path fill="none" stroke="black" d="M21.22,-13.92C29.54,-16.78 41.7,-20.96 51.38,-24.29"/>
<polygon fill="black" stroke="black" points="50.58,-25.87 55.88,-25.84 51.72,-22.56 50.58,-25.87"/>
</g>
<!-- n4 -->
<g id="node4" class="node">
<title>n4</title>
<ellipse fill="none" stroke="black" cx="125.03" cy="-29.61" rx="10.71" ry="10.71"/>
<text text-anchor="middle" x="125.03" y="-25.91" font-family="Times,serif" font-size="14.00">4</text>
</g>
<!-- n3&#45;&gt;n4 -->
<g id="edge3" class="edge">
<title>n3&#45;&gt;n4</title>
<path fill="none" stroke="black" d="M78.95,-29.61C86.96,-29.61 98.32,-29.61 107.63,-29.61"/>
<polygon fill="black" stroke="black" points="107.46,-31.36 112.46,-29.61 107.46,-27.86 107.46,-31.36"/>
</g>
</g>
</svg>
