<?xml version="1.0" encoding="UTF-8" standalone="no"?>
<!DOCTYPE svg PUBLIC "-//W3C//DTD SVG 1.1//EN"
 "http://www.w3.org/Graphics/SVG/1.1/DTD/svg11.dtd">
<!-- Generated by graphviz version 7.1.0 (0)
 -->
<!-- Title: G Pages: 1 -->
<svg width="211pt" height="47pt"
 viewBox="0.00 0.00 211.00 47.00" xmlns="http://www.w3.org/2000/svg" xmlns:xlink="http://www.w3.org/1999/xlink">
<g id="graph0" class="graph" transform="scale(1 1) rotate(0) translate(4 43)">
<title>G</title>
<polygon fill="white" stroke="none" points="-4,4 -4,-43 207,-43 207,4 -4,4"/>
<!-- s1 -->
<g id="node1" class="node">
<title>s1</title>
<ellipse fill="#6c9ac3" stroke="#6c9ac3" cx="18" cy="-19.5" rx="18" ry="18"/>
<text text-anchor="middle" x="18" y="-15.8" font-family="Times,serif" font-size="14.00">I</text>
</g>
<!-- t1 -->
<g id="node3" class="node">
<title>t1</title>
<polygon fill="#e28f41" stroke="#e28f41" points="121,-39 82,-39 82,0 121,0 121,-39"/>
<text text-anchor="middle" x="101.5" y="-15.8" font-family="Times,serif" font-size="14.00">rec</text>
</g>
<!-- s1&#45;&gt;t1 -->
<g id="edge1" class="edge">
<title>s1&#45;&gt;t1</title>
<path fill="none" stroke="black" d="M36.28,-19.5C46.13,-19.5 58.76,-19.5 70.2,-19.5"/>
<polygon fill="black" stroke="black" points="70.02,-23 80.02,-19.5 70.02,-16 70.02,-23"/>
<text text-anchor="middle" x="59" y="-23.3" font-family="Times,serif" font-size="14.00">1</text>
</g>
<!-- s2 -->
<g id="node2" class="node">
<title>s2</title>
<ellipse fill="#6c9ac3" stroke="#6c9ac3" cx="185" cy="-19.5" rx="18" ry="18"/>
<text text-anchor="middle" x="185" y="-15.8" font-family="Times,serif" font-size="14.00">R</text>
</g>
<!-- t1&#45;&gt;s2 -->
<g id="edge2" class="edge">
<title>t1&#45;&gt;s2</title>
<path fill="none" stroke="black" d="M121.4,-19.5C131.42,-19.5 143.93,-19.5 155.13,-19.5"/>
<polygon fill="black" stroke="black" points="155.08,-23 165.08,-19.5 155.08,-16 155.08,-23"/>
<text text-anchor="middle" x="144" y="-23.3" font-family="Times,serif" font-size="14.00">1</text>
</g>
</g>
</svg>
