<?xml version="1.0" encoding="UTF-8" standalone="no"?>
<!DOCTYPE svg PUBLIC "-//W3C//DTD SVG 1.1//EN"
 "http://www.w3.org/Graphics/SVG/1.1/DTD/svg11.dtd">
<!-- Generated by graphviz version 7.1.0 (0)
 -->
<!-- Title: G Pages: 1 -->
<svg width="258pt" height="68pt"
 viewBox="0.00 0.00 258.07 68.21" xmlns="http://www.w3.org/2000/svg" xmlns:xlink="http://www.w3.org/1999/xlink">
<g id="graph0" class="graph" transform="scale(1 1) rotate(0) translate(4 64.21)">
<title>G</title>
<polygon fill="white" stroke="none" points="-4,4 -4,-64.21 254.07,-64.21 254.07,4 -4,4"/>
<!-- n1 -->
<g id="node1" class="node">
<title>n1</title>
<ellipse fill="none" stroke="black" cx="10.61" cy="-29.61" rx="10.71" ry="10.71"/>
<text text-anchor="middle" x="10.61" y="-25.91" font-family="Times,serif" font-size="14.00">1</text>
</g>
<!-- n2 -->
<g id="node2" class="node">
<title>n2</title>
<ellipse fill="none" stroke="black" cx="67.82" cy="-29.61" rx="10.71" ry="10.71"/>
<text text-anchor="middle" x="67.82" y="-25.91" font-family="Times,serif" font-size="14.00">2</text>
</g>
<!-- n1&#45;&gt;n2 -->
<g id="edge1" class="edge">
<title>n1&#45;&gt;n2</title>
<path fill="none" stroke="black" d="M20.48,-24.49C28.9,-22.71 41.72,-22.38 51.75,-23.52"/>
<polygon fill="black" stroke="black" points="51.45,-25.24 56.66,-24.3 51.99,-21.78 51.45,-25.24"/>
</g>
<!-- n1&#45;&gt;n2 -->
<g id="edge2" class="edge">
<title>n1&#45;&gt;n2</title>
<path fill="none" stroke="black" d="M20.48,-34.72C28.9,-36.5 41.72,-36.83 51.75,-35.7"/>
<polygon fill="black" stroke="black" points="51.99,-37.43 56.66,-34.92 51.45,-33.97 51.99,-37.43"/>
</g>
<!-- n3 -->
<g id="node3" class="node">
<title>n3</title>
<ellipse fill="none" stroke="black" cx="125.03" cy="-49.61" rx="10.71" ry="10.71"/>
<text text-anchor="middle" x="125.03" y="-45.91" font-family="Times,serif" font-size="14.00">3</text>
</g>
<!-- n2&#45;&gt;n3 -->
<g id="edge3" class="edge">
<title>n2&#45;&gt;n3</title>
<path fill="none" stroke="black" d="M78.44,-33.09C86.75,-36.1 98.92,-40.51 108.59,-44.01"/>
<polygon fill="black" stroke="black" points="107.81,-45.59 113.1,-45.65 109,-42.3 107.81,-45.59"/>
</g>
<!-- n4 -->
<g id="node4" class="node">
<title>n4</title>
<ellipse fill="none" stroke="black" cx="125.03" cy="-10.61" rx="10.71" ry="10.71"/>
<text text-anchor="middle" x="125.03" y="-6.91" font-family="Times,serif" font-size="14.00">4</text>
</g>
<!-- n2&#45;&gt;n4 -->
<g id="edge4" class="edge">
<title>n2&#45;&gt;n4</title>
<path fill="none" stroke="black" d="M78.44,-26.3C86.75,-23.44 98.92,-19.25 108.59,-15.92"/>
<polygon fill="black" stroke="black" points="108.94,-17.65 113.09,-14.37 107.8,-14.34 108.94,-17.65"/>
</g>
<!-- n5 -->
<g id="node5" class="node">
<title>n5</title>
<ellipse fill="none" stroke="black" cx="182.25" cy="-29.61" rx="10.71" ry="10.71"/>
<text text-anchor="middle" x="182.25" y="-25.91" font-family="Times,serif" font-size="14.00">5</text>
</g>
<!-- n3&#45;&gt;n5 -->
<g id="edge5" class="edge">
<title>n3&#45;&gt;n5</title>
<path fill="none" stroke="black" d="M135.65,-46.12C143.96,-43.11 156.13,-38.7 165.81,-35.2"/>
<polygon fill="black" stroke="black" points="166.21,-36.91 170.32,-33.57 165.02,-33.62 166.21,-36.91"/>
</g>
<!-- n4&#45;&gt;n5 -->
<g id="edge6" class="edge">
<title>n4&#45;&gt;n5</title>
<path fill="none" stroke="black" d="M135.65,-13.92C143.96,-16.78 156.13,-20.96 165.81,-24.29"/>
<polygon fill="black" stroke="black" points="165.01,-25.87 170.31,-25.84 166.15,-22.56 165.01,-25.87"/>
</g>
<!-- n6 -->
<g id="node6" class="node">
<title>n6</title>
<ellipse fill="none" stroke="black" cx="239.46" cy="-29.61" rx="10.71" ry="10.71"/>
<text text-anchor="middle" x="239.46" y="-25.91" font-family="Times,serif" font-size="14.00">6</text>
</g>
<!-- n5&#45;&gt;n6 -->
<g id="edge7" class="edge">
<title>n5&#45;&gt;n6</title>
<path fill="none" stroke="black" d="M193.37,-29.61C201.39,-29.61 212.75,-29.61 222.06,-29.61"/>
<polygon fill="black" stroke="black" points="221.88,-31.36 226.88,-29.61 221.88,-27.86 221.88,-31.36"/>
</g>
</g>
</svg>
