<?xml version="1.0" encoding="UTF-8" standalone="no"?>
<!DOCTYPE svg PUBLIC "-//W3C//DTD SVG 1.1//EN"
 "http://www.w3.org/Graphics/SVG/1.1/DTD/svg11.dtd">
<!-- Generated by graphviz version 7.1.0 (0)
 -->
<!-- Title: G Pages: 1 -->
<svg width="144pt" height="68pt"
 viewBox="0.00 0.00 143.64 68.21" xmlns="http://www.w3.org/2000/svg" xmlns:xlink="http://www.w3.org/1999/xlink">
<g id="graph0" class="graph" transform="scale(1 1) rotate(0) translate(4 64.21)">
<title>G</title>
<polygon fill="white" stroke="none" points="-4,4 -4,-64.21 139.64,-64.21 139.64,4 -4,4"/>
<!-- n1 -->
<g id="node1" class="node">
<title>n1</title>
<ellipse fill="none" stroke="black" cx="10.61" cy="-29.61" rx="10.71" ry="10.71"/>
<text text-anchor="middle" x="10.61" y="-25.91" font-family="Times,serif" font-size="14.00">1</text>
</g>
<!-- n2 -->
<g id="node2" class="node">
<title>n2</title>
<ellipse fill="none" stroke="black" cx="67.82" cy="-29.61" rx="10.71" ry="10.71"/>
<text text-anchor="middle" x="67.82" y="-25.91" font-family="Times,serif" font-size="14.00">2</text>
</g>
<!-- n1&#45;&gt;n2 -->
<g id="edge1" class="edge">
<title>n1&#45;&gt;n2</title>
<path fill="none" stroke="black" d="M20.48,-24.49C28.9,-22.71 41.72,-22.38 51.75,-23.52"/>
<polygon fill="black" stroke="black" points="51.45,-25.24 56.66,-24.3 51.99,-21.78 51.45,-25.24"/>
</g>
<!-- n1&#45;&gt;n2 -->
<g id="edge2" class="edge">
<title>n1&#45;&gt;n2</title>
<path fill="none" stroke="black" d="M20.48,-34.72C28.9,-36.5 41.72,-36.83 51.75,-35.7"/>
<polygon fill="black" stroke="black" points="51.99,-37.43 56.66,-34.92 51.45,-33.97 51.99,-37.43"/>
</g>
<!-- n3 -->
<g id="node3" class="node">
<title>n3</title>
<ellipse fill="none" stroke="black" cx="125.03" cy="-49.61" rx="10.71" ry="10.71"/>
<text text-anchor="middle" x="125.03" y="-45.91" font-family="Times,serif" font-size="14.00">3</text>
</g>
<!-- n2&#45;&gt;n3 -->
<g id="edge3" class="edge">
<title>n2&#45;&gt;n3</title>
<path fill="none" stroke="black" d="M78.44,-33.09C86.75,-36.1 98.92,-40.51 108.59,-44.01"/>
<polygon fill="black" stroke="black" points="107.81,-45.59 113.1,-45.65 109,-42.3 107.81,-45.59"/>
</g>
<!-- n4 -->
<g id="node4" class="node">
<title>n4</title>
<ellipse fill="none" stroke="black" cx="125.03" cy="-10.61" rx="10.71" ry="10.71"/>
<text text-anchor="middle" x="125.03" y="-6.91" font-family="Times,serif" font-size="14.00">4</text>
</g>
<!-- n2&#45;&gt;n4 -->
<g id="edge4" class="edge">
<title>n2&#45;&gt;n4</title>
<path fill="none" stroke="black" d="M78.44,-26.3C86.75,-23.44 98.92,-19.25 108.59,-15.92"/>
<polygon fill="black" stroke="black" points="108.94,-17.65 113.09,-14.37 107.8,-14.34 108.94,-17.65"/>
</g>
</g>
</svg>
