<?xml version="1.0" encoding="UTF-8" standalone="no"?>
<!DOCTYPE svg PUBLIC "-//W3C//DTD SVG 1.1//EN"
 "http://www.w3.org/Graphics/SVG/1.1/DTD/svg11.dtd">
<!-- Generated by graphviz version 7.1.0 (0)
 -->
<!-- Title: G Pages: 1 -->
<svg width="269pt" height="153pt"
 viewBox="0.00 0.00 269.38 153.04" xmlns="http://www.w3.org/2000/svg" xmlns:xlink="http://www.w3.org/1999/xlink">
<g id="graph0" class="graph" transform="scale(1 1) rotate(0) translate(4 149.04)">
<title>G</title>
<polygon fill="white" stroke="none" points="-4,4 -4,-149.04 265.38,-149.04 265.38,4 -4,4"/>
<!-- n1 -->
<g id="node1" class="node">
<title>n1</title>
<ellipse fill="none" stroke="black" cx="10.61" cy="-52.44" rx="10.71" ry="10.71"/>
<text text-anchor="middle" x="10.61" y="-48.74" font-family="Times,serif" font-size="14.00">1</text>
</g>
<!-- n3 -->
<g id="node3" class="node">
<title>n3</title>
<ellipse fill="none" stroke="black" cx="67.82" cy="-42.44" rx="10.71" ry="10.71"/>
<text text-anchor="middle" x="67.82" y="-38.74" font-family="Times,serif" font-size="14.00">3</text>
</g>
<!-- n1&#45;&gt;n3 -->
<g id="edge1" class="edge">
<title>n1&#45;&gt;n3</title>
<path fill="none" stroke="black" d="M21.48,-50.65C29.64,-49.17 41.4,-47.04 50.89,-45.32"/>
<polygon fill="black" stroke="black" points="50.94,-47.09 55.54,-44.48 50.31,-43.65 50.94,-47.09"/>
</g>
<!-- n2 -->
<g id="node2" class="node">
<title>n2</title>
<ellipse fill="none" stroke="black" cx="10.61" cy="-13.44" rx="10.71" ry="10.71"/>
<text text-anchor="middle" x="10.61" y="-9.74" font-family="Times,serif" font-size="14.00">2</text>
</g>
<!-- n2&#45;&gt;n3 -->
<g id="edge2" class="edge">
<title>n2&#45;&gt;n3</title>
<path fill="none" stroke="black" d="M20.72,-18.22C29.33,-22.74 42.36,-29.59 52.38,-34.85"/>
<polygon fill="black" stroke="black" points="51.29,-36.26 56.53,-37.03 52.92,-33.16 51.29,-36.26"/>
</g>
<!-- n4 -->
<g id="node4" class="node">
<title>n4</title>
<ellipse fill="none" stroke="black" cx="125.03" cy="-42.44" rx="10.71" ry="10.71"/>
<text text-anchor="middle" x="125.03" y="-38.74" font-family="Times,serif" font-size="14.00">4</text>
</g>
<!-- n3&#45;&gt;n4 -->
<g id="edge3" class="edge">
<title>n3&#45;&gt;n4</title>
<path fill="none" stroke="black" d="M78.95,-42.44C86.96,-42.44 98.32,-42.44 107.63,-42.44"/>
<polygon fill="black" stroke="black" points="107.46,-44.19 112.46,-42.44 107.46,-40.69 107.46,-44.19"/>
</g>
<!-- n9 -->
<g id="node9" class="node">
<title>n9</title>
<ellipse fill="none" stroke="black" cx="185.07" cy="-42.44" rx="10.71" ry="10.71"/>
<text text-anchor="middle" x="185.07" y="-38.74" font-family="Times,serif" font-size="14.00">9</text>
</g>
<!-- n4&#45;&gt;n9 -->
<g id="edge8" class="edge">
<title>n4&#45;&gt;n9</title>
<path fill="none" stroke="black" d="M134.6,-37.48C143.58,-35.52 157.88,-35.17 168.81,-36.41"/>
<polygon fill="black" stroke="black" points="168.39,-38.12 173.6,-37.16 168.93,-34.66 168.39,-38.12"/>
</g>
<!-- n4&#45;&gt;n9 -->
<g id="edge9" class="edge">
<title>n4&#45;&gt;n9</title>
<path fill="none" stroke="black" d="M134.6,-47.39C143.58,-49.35 157.88,-49.7 168.81,-48.46"/>
<polygon fill="black" stroke="black" points="168.93,-50.21 173.6,-47.71 168.39,-46.75 168.93,-50.21"/>
</g>
<!-- n5 -->
<g id="node5" class="node">
<title>n5</title>
<ellipse fill="none" stroke="black" cx="10.61" cy="-110.44" rx="10.71" ry="10.71"/>
<text text-anchor="middle" x="10.61" y="-106.74" font-family="Times,serif" font-size="14.00">5</text>
</g>
<!-- n6 -->
<g id="node6" class="node">
<title>n6</title>
<ellipse fill="none" stroke="black" cx="67.82" cy="-110.44" rx="10.71" ry="10.71"/>
<text text-anchor="middle" x="67.82" y="-106.74" font-family="Times,serif" font-size="14.00">6</text>
</g>
<!-- n5&#45;&gt;n6 -->
<g id="edge4" class="edge">
<title>n5&#45;&gt;n6</title>
<path fill="none" stroke="black" d="M20.48,-105.32C28.9,-103.54 41.72,-103.21 51.75,-104.35"/>
<polygon fill="black" stroke="black" points="51.45,-106.07 56.66,-105.13 51.99,-102.61 51.45,-106.07"/>
</g>
<!-- n5&#45;&gt;n6 -->
<g id="edge5" class="edge">
<title>n5&#45;&gt;n6</title>
<path fill="none" stroke="black" d="M20.48,-115.55C28.9,-117.33 41.72,-117.66 51.75,-116.52"/>
<polygon fill="black" stroke="black" points="51.99,-118.26 56.66,-115.74 51.45,-114.8 51.99,-118.26"/>
</g>
<!-- n7 -->
<g id="node7" class="node">
<title>n7</title>
<ellipse fill="none" stroke="black" cx="125.03" cy="-134.44" rx="10.71" ry="10.71"/>
<text text-anchor="middle" x="125.03" y="-130.74" font-family="Times,serif" font-size="14.00">7</text>
</g>
<!-- n6&#45;&gt;n7 -->
<g id="edge6" class="edge">
<title>n6&#45;&gt;n7</title>
<path fill="none" stroke="black" d="M78.19,-114.51C86.64,-118.18 99.24,-123.66 109.09,-127.94"/>
<polygon fill="black" stroke="black" points="108.13,-129.43 113.42,-129.82 109.53,-126.22 108.13,-129.43"/>
</g>
<!-- n8 -->
<g id="node8" class="node">
<title>n8</title>
<ellipse fill="none" stroke="black" cx="125.03" cy="-95.44" rx="10.71" ry="10.71"/>
<text text-anchor="middle" x="125.03" y="-91.74" font-family="Times,serif" font-size="14.00">8</text>
</g>
<!-- n6&#45;&gt;n8 -->
<g id="edge7" class="edge">
<title>n6&#45;&gt;n8</title>
<path fill="none" stroke="black" d="M78.69,-107.75C86.86,-105.53 98.61,-102.34 108.11,-99.76"/>
<polygon fill="black" stroke="black" points="108.42,-101.49 112.79,-98.49 107.5,-98.11 108.42,-101.49"/>
</g>
<!-- n12 -->
<g id="node12" class="node">
<title>n12</title>
<ellipse fill="none" stroke="black" cx="185.07" cy="-111.44" rx="13.37" ry="13.37"/>
<text text-anchor="middle" x="185.07" y="-107.74" font-family="Times,serif" font-size="14.00">12</text>
</g>
<!-- n7&#45;&gt;n12 -->
<g id="edge12" class="edge">
<title>n7&#45;&gt;n12</title>
<path fill="none" stroke="black" d="M135.36,-130.74C143.64,-127.46 155.97,-122.57 166.15,-118.54"/>
<polygon fill="black" stroke="black" points="166.75,-120.18 170.75,-116.71 165.46,-116.93 166.75,-120.18"/>
</g>
<!-- n8&#45;&gt;n12 -->
<g id="edge13" class="edge">
<title>n8&#45;&gt;n12</title>
<path fill="none" stroke="black" d="M135.88,-98.15C144.05,-100.4 155.89,-103.67 165.79,-106.4"/>
<polygon fill="black" stroke="black" points="165.22,-108.05 170.5,-107.69 166.15,-104.68 165.22,-108.05"/>
</g>
<!-- n10 -->
<g id="node10" class="node">
<title>n10</title>
<ellipse fill="none" stroke="black" cx="247.94" cy="-58.44" rx="13.37" ry="13.37"/>
<text text-anchor="middle" x="247.94" y="-54.74" font-family="Times,serif" font-size="14.00">10</text>
</g>
<!-- n9&#45;&gt;n10 -->
<g id="edge10" class="edge">
<title>n9&#45;&gt;n10</title>
<path fill="none" stroke="black" d="M195.85,-45.01C204.73,-47.34 218.05,-50.84 228.86,-53.68"/>
<polygon fill="black" stroke="black" points="228.14,-55.3 233.42,-54.88 229.03,-51.92 228.14,-55.3"/>
</g>
<!-- n11 -->
<g id="node11" class="node">
<title>n11</title>
<ellipse fill="none" stroke="black" cx="247.94" cy="-13.44" rx="13.37" ry="13.37"/>
<text text-anchor="middle" x="247.94" y="-9.74" font-family="Times,serif" font-size="14.00">11</text>
</g>
<!-- n9&#45;&gt;n11 -->
<g id="edge11" class="edge">
<title>n9&#45;&gt;n11</title>
<path fill="none" stroke="black" d="M195.32,-38.03C204.41,-33.7 218.51,-26.98 229.68,-21.66"/>
<polygon fill="black" stroke="black" points="230.41,-23.25 234.17,-19.52 228.9,-20.09 230.41,-23.25"/>
</g>
<!-- n13 -->
<g id="node13" class="node">
<title>n13</title>
<ellipse fill="none" stroke="black" cx="247.94" cy="-111.44" rx="13.37" ry="13.37"/>
<text text-anchor="middle" x="247.94" y="-107.74" font-family="Times,serif" font-size="14.00">13</text>
</g>
<!-- n12&#45;&gt;n13 -->
<g id="edge14" class="edge">
<title>n12&#45;&gt;n13</title>
<path fill="none" stroke="black" d="M198.69,-111.44C207.17,-111.44 218.52,-111.44 228.08,-111.44"/>
<polygon fill="black" stroke="black" points="227.84,-113.19 232.83,-111.44 227.83,-109.69 227.84,-113.19"/>
</g>
</g>
</svg>
